<svg xmlns="http://www.w3.org/2000/svg" viewBox="0 0 500 500"><defs><style>.cls-1{fill:#e8ebe9;}.cls-2{fill:#fff;}</style></defs><g id="Layer_2" data-name="Layer 2"><g id="Layer_1-2" data-name="Layer 1"><circle class="cls-1" cx="250" cy="250" r="250"/><g id="layer1"><path id="path3046" class="cls-2" d="M52.69,185.82,30.54,237.31H45L49,227H72.8l4.06,10.31H91.6L69.47,185.82Zm8.19,12,7.24,18H53.62Z"/><path id="path3048" class="cls-2" d="M93.12,237.3V185.81l20.49.07,11.92,33.2,11.63-33.27h20.32V237.3H144.61V199.36L131,237.3H119.68L106,199.36V237.3Z"/><path id="path3050" class="cls-2" d="M166.29,237.3V185.81h42v11.51h-29v8.81h28.32V217H179.3v9.15h29V237.3Z"/><path id="path3052" class="cls-2" d="M215.75,185.82v51.49h12.87V219H234l15.44,18.3h15.73l-16.94-19a15.69,15.69,0,0,0,14.12-15.82c0-10.83-8.5-16.7-18-16.7Zm12.87,11.51h14.72c3.53,0,6.09,2.76,6.09,5.42,0,3.42-3.32,5.42-5.9,5.42H228.62V197.33Z"/><path id="path3054" class="cls-2" d="M280.79,237.3H267.65V185.81h13.14Z"/><path id="path3056" class="cls-2" d="M312,237.3h-2.83c-13.73,0-22.06-10.82-22.06-25.54,0-15.08,8.24-25.95,25.57-25.95h14.23V198H312.11c-7,0-12,5.49-12,13.89,0,10,5.69,14.16,13.89,14.16h3.38Z"/><path id="path3058" class="cls-2" d="M340,185.82l-22.14,51.49h14.42L336.32,227h23.76l4.06,10.31h14.74l-22.13-51.49Zm8.2,12,7.24,18H340.9l7.26-18Z"/><path id="path3060" class="cls-2" d="M380.38,237.3V185.81h16.37l20.89,32.35V185.81h12.88V237.3H414.68l-21.43-33.2v33.2Z"/><path id="path3062" class="cls-2" d="M124.29,327.4V275.91h42v11.52h-29v8.81h28.31v10.84H137.3v9.15h29V327.4Z"/><path id="path3064" class="cls-2" d="M330.11,327.4V279.67h42v10.67h-29v8.17H371.3v10.05H343.12V317h29V327.4Z"/><path id="path3066" class="cls-2" d="M167.92,327.4,188.37,302l-20.93-26.07h16.21L196.12,292l12.52-16.12h15.58l-20.67,25.75L224,327.4H207.83l-12.11-15.85L183.91,327.4Z"/><path id="path3068" class="cls-2" d="M225.57,275.92v51.49h13.21V311.15h13.55c11.47,0,20.16-6.08,20.16-17.91,0-9.8-6.82-17.32-18.48-17.32Zm13.21,11.65h14.27c3.71,0,6.36,2.27,6.36,5.93,0,3.43-2.64,5.92-6.4,5.92H238.78V287.57Z"/><path id="path3072" class="cls-2" d="M278.08,275.91V327.4H291V309.11h5.42l15.44,18.29h15.73l-16.94-19a15.67,15.67,0,0,0,14.12-15.81c0-10.84-8.5-16.71-18-16.71ZM291,287.43h14.72c3.53,0,6.09,2.76,6.09,5.42,0,3.42-3.32,5.42-5.9,5.42H291Z"/><path id="path3074" class="cls-2" d="M378.08,327.4V316.23h25.76c3.81,0,5.46-2.06,5.46-4.32s-1.64-4.36-5.46-4.36H392.2c-10.12,0-15.76-6.16-15.76-15.42,0-8.25,5.16-16.22,20.2-16.22h25.07l-5.42,11.59H394.61c-4.15,0-5.42,2.17-5.42,4.25a4.48,4.48,0,0,0,4.74,4.49h12.2c11.28,0,16.17,6.4,16.17,14.78,0,9-5.45,16.38-16.79,16.38Z"/><path id="path3076" class="cls-2" d="M425.32,327.4V316.23h25.76c3.82,0,5.47-2.06,5.47-4.32s-1.65-4.36-5.47-4.36H439.44c-10.12,0-15.75-6.16-15.75-15.42,0-8.25,5.16-16.22,20.2-16.22H469l-5.42,11.59H441.85c-4.14,0-5.42,2.17-5.42,4.25a4.49,4.49,0,0,0,4.75,4.49h12.19c11.28,0,16.18,6.4,16.18,14.78,0,9-5.46,16.38-16.79,16.38Z"/></g></g></g></svg>