<svg xmlns="http://www.w3.org/2000/svg" width="202.03" height="65.177" viewBox="0 0 202.03 65.177">
  <g id="AmericanExpress" transform="translate(-14.054 -85.495)">
    <g id="Layer_1" data-name="Layer 1">
      <g id="layer1" transform="translate(14.054 85.495)">
        <path id="path3046" d="M40.733,185.82l-10.193,23.7h6.654l1.841-4.745H49.988l1.868,4.745h6.783l-10.184-23.7Zm3.769,5.522,3.332,8.284H41.161Z" transform="translate(-30.54 -185.802)" fill="#e1f2ee"/>
        <path id="path3048" d="M93.12,209.505v-23.7l9.429.032,5.486,15.278,5.352-15.311h9.351v23.7h-5.923v-17.46l-6.263,17.46h-5.209l-6.3-17.46v17.46Z" transform="translate(-64.321 -185.796)" fill="#e1f2ee"/>
        <path id="path3050" d="M166.29,209.505v-23.7h19.328v5.3H172.273v4.054h13.033v5H172.277v4.211h13.346v5.131Z" transform="translate(-103.819 -185.796)" fill="#e1f2ee"/>
        <path id="path3052" d="M215.75,185.8v23.7h5.923v-8.426h2.476l7.105,8.422h7.239l-7.8-8.744a7.22,7.22,0,0,0,6.5-7.28c0-4.984-3.912-7.685-8.284-7.685Zm5.923,5.3h6.774a2.716,2.716,0,0,1,2.8,2.494,2.675,2.675,0,0,1-2.715,2.494h-6.862Z" transform="translate(-130.517 -185.78)" fill="#e1f2ee"/>
        <path id="path3054" d="M273.7,209.505H267.65v-23.7H273.7Z" transform="translate(-158.533 -185.796)" fill="#e1f2ee"/>
        <path id="path3056" d="M298.564,209.505h-1.3c-6.318,0-10.152-4.979-10.152-11.753,0-6.94,3.792-11.942,11.767-11.942h6.549v5.61h-6.811c-3.221,0-5.522,2.526-5.522,6.392,0,4.6,2.619,6.516,6.392,6.516h1.555Z" transform="translate(-169.038 -185.796)" fill="#e1f2ee"/>
        <path id="path3058" d="M328.049,185.82l-10.189,23.7H324.5l1.859-4.745h10.934l1.868,4.745h6.783l-10.184-23.7Zm3.774,5.522,3.332,8.284h-6.691l3.341-8.284Z" transform="translate(-185.637 -185.802)" fill="#e1f2ee"/>
        <path id="path3060" d="M380.38,209.505v-23.7h7.533l9.613,14.887V185.81h5.927v23.7h-7.289L386.3,194.227v15.278Z" transform="translate(-219.385 -185.796)" fill="#e1f2ee"/>
        <path id="path3062" d="M124.29,299.605v-23.7h19.328v5.3H130.273v4.054H143.3v4.989H130.277v4.211h13.346v5.14Z" transform="translate(-81.147 -234.433)" fill="#e1f2ee"/>
        <path id="path3064" d="M330.11,301.635V279.67h19.328v4.91H336.093v3.76h12.973v4.625H336.1v3.884h13.346v4.786Z" transform="translate(-192.249 -236.462)" fill="#e1f2ee"/>
        <path id="path3066" d="M167.661,299.589l9.411-11.689-9.632-12h7.46l5.739,7.4,5.762-7.418h7.17l-9.512,11.85,9.411,11.859h-7.441l-5.573-7.294-5.435,7.294Z" transform="translate(-104.439 -234.416)" fill="#e1f2ee"/>
        <path id="path3068" d="M225.57,275.92v23.7h6.079v-7.483h6.236c5.278,0,9.278-2.8,9.278-8.242,0-4.51-3.139-7.971-8.5-7.971Zm6.079,5.361h6.567a2.676,2.676,0,0,1,2.927,2.729,2.735,2.735,0,0,1-2.945,2.724h-6.549v-5.453Z" transform="translate(-135.818 -234.438)" fill="#e1f2ee"/>
        <path id="path3072" d="M278.08,275.894v23.7h5.946v-8.417h2.494l7.105,8.417h7.239l-7.8-8.744a7.211,7.211,0,0,0,6.5-7.276c0-4.988-3.912-7.69-8.284-7.69Zm5.946,5.3H290.8a2.716,2.716,0,0,1,2.8,2.494,2.675,2.675,0,0,1-2.715,2.494h-6.862Z" transform="translate(-164.163 -234.416)" fill="#e1f2ee"/>
        <path id="path3074" d="M377.195,299.605v-5.14h11.855c1.753,0,2.513-.948,2.513-1.988s-.755-2.006-2.513-2.006h-5.357c-4.657,0-7.253-2.835-7.253-7.1,0-3.8,2.375-7.464,9.3-7.464h11.537l-2.494,5.334H384.8c-1.91,0-2.494,1-2.494,1.956a2.062,2.062,0,0,0,2.181,2.066H390.1c5.191,0,7.441,2.945,7.441,6.8,0,4.142-2.508,7.538-7.727,7.538Z" transform="translate(-217.259 -234.433)" fill="#e1f2ee"/>
        <path id="path3076" d="M424.44,299.605v-5.14h11.855c1.758,0,2.517-.948,2.517-1.988s-.759-2.006-2.517-2.006h-5.357c-4.657,0-7.248-2.835-7.248-7.1,0-3.8,2.375-7.464,9.3-7.464h11.555l-2.494,5.334h-10c-1.905,0-2.494,1-2.494,1.956a2.066,2.066,0,0,0,2.186,2.066h5.61c5.191,0,7.446,2.945,7.446,6.8,0,4.142-2.513,7.538-7.727,7.538Z" transform="translate(-242.764 -234.433)" fill="#e1f2ee"/>
      </g>
    </g>
  </g>
</svg>
