<svg xmlns="http://www.w3.org/2000/svg" width="197.663" height="36.737" viewBox="0 0 197.663 36.737">
  <g id="Chase" transform="translate(-18.339 -98.408)">
    <g id="Layer_1" data-name="Layer 1">
      <g id="layer1" transform="translate(18.339 98.408)">
        <g id="logotype">
          <g id="g17202">
            <g id="logo" transform="translate(160.912)">
              <path id="logo-ne" d="M416.548,213.84a1.3,1.3,0,0,0-1.3,1.3v9.093h24.027L428.333,213.84H416.548" transform="translate(-403.405 -213.84)" fill="#e1f2ee"/>
              <path id="logo-se" d="M457.181,240.878a1.3,1.3,0,0,0-1.3-1.3H446.79V263.6l10.387-10.943V240.878" transform="translate(-420.43 -227.735)" fill="#e1f2ee"/>
              <path id="logo-sw" d="M414.144,281.481a1.3,1.3,0,0,0,1.3-1.3V271.09H391.42l10.939,10.391h11.786" transform="translate(-390.541 -244.744)" fill="#e1f2ee"/>
              <path id="logo-nw" d="M389.51,238.464a1.3,1.3,0,0,0,1.3,1.3H399.9V215.74L389.51,226.679v11.786" transform="translate(-389.51 -214.866)" fill="#e1f2ee"/>
            </g>
            <g id="type" transform="translate(0 4.349)">
              <path id="H" d="M125.506,223.37v11.1H110.048v-11.1H104.42v27.971h5.628V239.307h15.458v12.016h5.637V223.37h-5.637" transform="translate(-74.705 -223.333)" fill="#e1f2ee"/>
              <path id="E" d="M313,223.37v27.961h24.694l-3.125-4.924H318.633v-7.1h15.421v-4.74H318.633v-6.392h15.9l3.065-4.8H313" transform="translate(-187.298 -223.333)" fill="#e1f2ee"/>
              <path id="C" d="M48.663,223.35c-5.854,0-8.813,3.562-8.813,8.744v10.423c0,5.983,3.81,8.794,8.785,8.794H66.274L63,246.2H49.7c-2.826,0-4.059-1.022-4.059-4.183v-9.462c0-3.056,1.04-4.248,4.142-4.248H63.131l3.143-4.956H48.663" transform="translate(-39.85 -223.322)" fill="#e1f2ee"/>
              <path id="S" d="M251,223.313c-3.378,0-6.848,2.034-6.848,7.262V231.9c0,5.449,3.336,7.529,6.673,7.543h11.712c1.219,0,2.2.2,2.2,2.26v2.375c-.032,1.841-.953,2.269-2.246,2.269H247.087l-3.157,4.924h18.928c4.565,0,7.662-2.273,7.662-7.515v-1.928c0-5.062-2.876-7.469-7.34-7.469H251.993c-1.238,0-2.1-.336-2.1-2.172v-1.937c0-1.565.594-2.135,2.039-2.135H266.6l3.065-4.823H251" transform="translate(-150.013 -223.29)" fill="#e1f2ee"/>
              <path id="A" d="M182.443,223.37,169.18,251.336h6.268l2.586-5.775h14.413l2.572,5.775h6.291L188.02,223.37Zm2.8,5.812,5.094,11.62H180.174l5.062-11.62" transform="translate(-109.663 -223.333)" fill="#e1f2ee"/>
            </g>
          </g>
        </g>
      </g>
    </g>
  </g>
</svg>
