<svg xmlns="http://www.w3.org/2000/svg" viewBox="0 0 500 500"><defs><style>.cls-1{fill:#e8ebe9;}.cls-2{fill:#fff;}</style></defs><g id="Layer_2" data-name="Layer 2"><g id="Layer_1-2" data-name="Layer 1"><circle class="cls-1" cx="250" cy="250" r="250"/><g id="layer1"><g id="logotype"><g id="g17202"><g id="logo"><path id="logo-ne" class="cls-2" d="M418.07,213.84a2.82,2.82,0,0,0-2.82,2.82v19.76h52.21l-23.78-22.58H418.07"/><path id="logo-se" class="cls-2" d="M469.37,242.4a2.82,2.82,0,0,0-2.82-2.82H446.79v52.2L469.36,268V242.4"/><path id="logo-sw" class="cls-2" d="M440.8,293.67a2.82,2.82,0,0,0,2.82-2.82V271.09h-52.2l23.77,22.58H440.8"/><path id="logo-nw" class="cls-2" d="M389.51,265.12a2.83,2.83,0,0,0,2.82,2.83h19.76V215.74l-22.58,23.77v25.61"/></g><g id="type"><path id="H" class="cls-2" d="M150.24,223.37v24.11H116.65V223.37H104.42v60.78h12.23V258h33.59v26.11h12.25V223.37H150.24"/><path id="E" class="cls-2" d="M313,223.37v60.76h53.66l-6.79-10.7H325.24V258h33.51v-10.3H325.24V233.81h34.55l6.66-10.44H313"/><path id="C" class="cls-2" d="M59,223.35c-12.72,0-19.15,7.74-19.15,19V265c0,13,8.28,19.11,19.09,19.11H97.27L90.15,273H61.26c-6.14,0-8.82-2.22-8.82-9.09V243.35c0-6.64,2.26-9.23,9-9.23h29l6.83-10.77H59"/><path id="S" class="cls-2" d="M259.29,223.34c-7.34,0-14.88,4.42-14.88,15.78V242c0,11.84,7.25,16.36,14.5,16.39h25.45c2.65,0,4.79.44,4.79,4.91v5.16c-.07,4-2.07,4.93-4.88,4.93H250.79l-6.86,10.7h41.13c9.92,0,16.65-4.94,16.65-16.33v-4.19c0-11-6.25-16.23-15.95-16.23H261.45c-2.69,0-4.57-.73-4.57-4.72v-4.21c0-3.4,1.29-4.64,4.43-4.64H293.2l6.66-10.48-40.57,0"/><path id="A" class="cls-2" d="M198,223.37l-28.82,60.77h13.62l5.62-12.55h31.32l5.59,12.55H239l-28.88-60.77ZM204.08,236l11.07,25.25H193.07l11-25.25"/></g></g></g></g></g></g></svg>