<svg xmlns="http://www.w3.org/2000/svg" width="179.513" height="115.753" viewBox="0 0 179.513 115.753">
  <g id="Citi" transform="translate(-21.79 -47.4)">
    <g id="Layer_1" data-name="Layer 1">
      <path id="Path_52" data-name="Path 52" d="M202.55,267.635h14.657V196.07H202.55v71.565" transform="translate(-109.338 -105.84)" fill="#e1f2ee"/>
      <path id="Path_53" data-name="Path 53" d="M307.029,226.036c-3.916,2.384-7.552,3.585-10.819,3.585-4.74,0-6.9-2.5-6.9-8.076V183.569h14.938V170.1H289.325V147.83l-14.367,7.694V170.1h-12.4v13.47h12.4v40.4c0,11,6.521,18.532,16.259,18.725a23,23,0,0,0,13-3.286l.156-.1,3.52-13.806-.865.529" transform="translate(-141.731 -79.799)" fill="#e1f2ee"/>
      <path id="Path_54" data-name="Path 54" d="M385.56,267.635h14.676V196.07H385.56v71.565" transform="translate(-208.127 -105.84)" fill="#e1f2ee"/>
      <path id="Path_55" data-name="Path 55" d="M102.095,245.247l-.331.318c-5.182,5.283-11.183,8.072-17.359,8.072-12.885,0-22.264-9.664-22.264-23.033s9.36-23.01,22.264-23.01c6.176,0,12.177,2.807,17.359,8.109l.331.313,8.284-10.037-.221-.267c-6.9-8.155-15.186-12.122-25.366-12.122s-19.54,3.41-26.263,9.618c-7.322,6.714-11.178,16.18-11.178,27.386s3.856,20.709,11.178,27.418c6.723,6.231,16.07,9.641,26.277,9.641s18.463-3.971,25.366-12.131l.221-.244-8.284-10.041" transform="translate(-25.56 -104.501)" fill="#e1f2ee"/>
      <path id="Path_56" data-name="Path 56" d="M298.56,133.285a71.141,71.141,0,0,0-116.48,0l-.69.976h16.848l.184-.2a57.467,57.467,0,0,1,83.755,0l.184.2h16.857l-.658-.976" transform="translate(-97.915 -55.6)" fill="#e1f2ee"/>
    </g>
  </g>
</svg>
