<svg xmlns="http://www.w3.org/2000/svg" viewBox="0 0 500 500"><defs><style>.cls-1{fill:#e8ebe9;}.cls-2{fill:#fff;}</style></defs><g id="Layer_2" data-name="Layer 2"><g id="Layer_1-2" data-name="Layer 1"><circle class="cls-1" cx="250" cy="250" r="250"/><path class="cls-2" d="M202.55,351.58H234.4V196.07H202.55V351.58"/><path class="cls-2" d="M359.19,317.77c-8.51,5.18-16.41,7.79-23.51,7.79-10.3,0-15-5.44-15-17.55V225.49h32.46V196.22H320.72V147.83L289.5,164.55v31.67H262.56v29.27H289.5v87.78c0,23.9,14.17,40.27,35.33,40.69,14.36.28,23-4,28.25-7.14l.34-.21,7.65-30-1.88,1.15"/><path class="cls-2" d="M385.56,351.58h31.89V196.07H385.56V351.58"/><path class="cls-2" d="M166.31,305.84l-.72.69c-11.26,11.48-24.3,17.54-37.72,17.54-28,0-48.38-21-48.38-50.05s20.34-50,48.38-50c13.42,0,26.46,6.1,37.72,17.62l.72.68,18-21.81-.48-.58c-15-17.72-33-26.34-55.12-26.34S86.25,201,71.64,214.49C55.73,229.08,47.35,249.65,47.35,274s8.38,45,24.29,59.58c14.61,13.54,34.92,20.95,57.1,20.95s40.12-8.63,55.12-26.36l.48-.53-18-21.82"/><path class="cls-2" d="M436,168.81C406.92,127.59,358.6,103,309.43,103s-97.49,24.59-126.54,65.81l-1.5,2.12H218l.4-.44c24.94-25.75,57.51-39.36,91-39.36s66,13.61,91,39.36l.4.44h36.63L436,168.81"/></g></g></svg>