<svg xmlns="http://www.w3.org/2000/svg" viewBox="0 0 500 500"><defs><style>.cls-1{fill:#e8ebe9;}.cls-2{fill:#fff;}</style></defs><g id="Layer_2" data-name="Layer 2"><g id="Layer_1-2" data-name="Layer 1"><circle class="cls-1" cx="250" cy="250" r="250"/><g id="g3464"><path id="path3466" class="cls-2" d="M112.43,249.91c0-16.63-11-26.08-26.66-26.08H76.21V276H85.5c14.52,0,26.93-7.89,26.93-26.1m170.1,18.78-70.45,55.47L147.7,273.47c-9.29,22.32-31.74,37.82-57.6,37.82H35V188.54H90.1a61.77,61.77,0,0,1,57.58,37.94l64.4-50.64,23.85,18.78-59,46.39,11.34,8.88,59-46.37,23.89,18.72-59,46.45,11.33,8.89,59.07-46.45V188.54h42.82v86.92h42.71v36H282.53Zm139.77,6.79H465v36H379.44V188.54H422.3Z"/></g></g></g></svg>