<svg xmlns="http://www.w3.org/2000/svg" width="197.884" height="68.251" viewBox="0 0 197.884 68.251">
  <g id="Dell" transform="translate(-16.107 -80.921)">
    <g id="Layer_1" data-name="Layer 1">
      <g id="g3464" transform="translate(16.107 80.921)">
        <path id="path3466" d="M70.633,209.927c0-7.653-5.062-12-12.269-12h-4.4v24.008H58.24c6.682,0,12.393-3.631,12.393-12.011m78.279,8.642-32.421,25.527L86.864,220.769a28.633,28.633,0,0,1-26.507,17.4H35V181.684H60.357a28.426,28.426,0,0,1,26.5,17.46l29.637-23.3,10.976,8.642-27.151,21.348,5.219,4.087,27.151-21.339,10.994,8.615-27.151,21.376,5.214,4.091,27.184-21.376v-19.6h19.706v40h19.655v16.567H148.912Zm64.321,3.125h19.65v16.567H193.51V181.684h19.724Z" transform="translate(-35 -175.84)" fill="#e1f2ee"/>
      </g>
    </g>
  </g>
</svg>
