<svg xmlns="http://www.w3.org/2000/svg" width="190" height="790" viewBox="0 0 190 790">
  <g id="dotsright" transform="translate(202 4041) rotate(180)">
    <circle id="Ellipse_18" data-name="Ellipse 18" cx="5" cy="5" r="5" transform="translate(12 3491)" fill="#f2fcfa"/>
    <circle id="Ellipse_19" data-name="Ellipse 19" cx="5" cy="5" r="5" transform="translate(32 3491)" fill="#f2fcfa"/>
    <circle id="Ellipse_20" data-name="Ellipse 20" cx="5" cy="5" r="5" transform="translate(12 3511)" fill="#f2fcfa"/>
    <circle id="Ellipse_21" data-name="Ellipse 21" cx="5" cy="5" r="5" transform="translate(32 3511)" fill="#f2fcfa"/>
    <circle id="Ellipse_22" data-name="Ellipse 22" cx="5" cy="5" r="5" transform="translate(12 3531)" fill="#f2fcfa"/>
    <circle id="Ellipse_23" data-name="Ellipse 23" cx="5" cy="5" r="5" transform="translate(32 3531)" fill="#f2fcfa"/>
    <circle id="Ellipse_24" data-name="Ellipse 24" cx="5" cy="5" r="5" transform="translate(12 3551)" fill="#f2fcfa"/>
    <circle id="Ellipse_25" data-name="Ellipse 25" cx="5" cy="5" r="5" transform="translate(32 3551)" fill="#f2fcfa"/>
    <circle id="Ellipse_26" data-name="Ellipse 26" cx="5" cy="5" r="5" transform="translate(52 3491)" fill="#f2fcfa"/>
    <circle id="Ellipse_27" data-name="Ellipse 27" cx="5" cy="5" r="5" transform="translate(72 3491)" fill="#f2fcfa"/>
    <circle id="Ellipse_28" data-name="Ellipse 28" cx="5" cy="5" r="5" transform="translate(52 3511)" fill="#f2fcfa"/>
    <circle id="Ellipse_29" data-name="Ellipse 29" cx="5" cy="5" r="5" transform="translate(72 3511)" fill="#f2fcfa"/>
    <circle id="Ellipse_30" data-name="Ellipse 30" cx="5" cy="5" r="5" transform="translate(52 3531)" fill="#f2fcfa"/>
    <circle id="Ellipse_31" data-name="Ellipse 31" cx="5" cy="5" r="5" transform="translate(72 3531)" fill="#f2fcfa"/>
    <circle id="Ellipse_32" data-name="Ellipse 32" cx="5" cy="5" r="5" transform="translate(52 3551)" fill="#f2fcfa"/>
    <circle id="Ellipse_33" data-name="Ellipse 33" cx="5" cy="5" r="5" transform="translate(72 3551)" fill="#f2fcfa"/>
    <circle id="Ellipse_34" data-name="Ellipse 34" cx="5" cy="5" r="5" transform="translate(12 3571)" fill="#f2fcfa"/>
    <circle id="Ellipse_35" data-name="Ellipse 35" cx="5" cy="5" r="5" transform="translate(32 3571)" fill="#f2fcfa"/>
    <circle id="Ellipse_36" data-name="Ellipse 36" cx="5" cy="5" r="5" transform="translate(12 3591)" fill="#f2fcfa"/>
    <circle id="Ellipse_37" data-name="Ellipse 37" cx="5" cy="5" r="5" transform="translate(32 3591)" fill="#f2fcfa"/>
    <circle id="Ellipse_38" data-name="Ellipse 38" cx="5" cy="5" r="5" transform="translate(12 3611)" fill="#f2fcfa"/>
    <circle id="Ellipse_39" data-name="Ellipse 39" cx="5" cy="5" r="5" transform="translate(32 3611)" fill="#f2fcfa"/>
    <circle id="Ellipse_40" data-name="Ellipse 40" cx="5" cy="5" r="5" transform="translate(12 3631)" fill="#f2fcfa"/>
    <circle id="Ellipse_41" data-name="Ellipse 41" cx="5" cy="5" r="5" transform="translate(32 3631)" fill="#f2fcfa"/>
    <circle id="Ellipse_42" data-name="Ellipse 42" cx="5" cy="5" r="5" transform="translate(52 3571)" fill="#f2fcfa"/>
    <circle id="Ellipse_43" data-name="Ellipse 43" cx="5" cy="5" r="5" transform="translate(72 3571)" fill="#f2fcfa"/>
    <circle id="Ellipse_44" data-name="Ellipse 44" cx="5" cy="5" r="5" transform="translate(52 3591)" fill="#f2fcfa"/>
    <circle id="Ellipse_45" data-name="Ellipse 45" cx="5" cy="5" r="5" transform="translate(72 3591)" fill="#f2fcfa"/>
    <circle id="Ellipse_46" data-name="Ellipse 46" cx="5" cy="5" r="5" transform="translate(52 3611)" fill="#f2fcfa"/>
    <circle id="Ellipse_47" data-name="Ellipse 47" cx="5" cy="5" r="5" transform="translate(72 3611)" fill="#f2fcfa"/>
    <circle id="Ellipse_48" data-name="Ellipse 48" cx="5" cy="5" r="5" transform="translate(52 3631)" fill="#f2fcfa"/>
    <circle id="Ellipse_49" data-name="Ellipse 49" cx="5" cy="5" r="5" transform="translate(72 3631)" fill="#f2fcfa"/>
    <circle id="Ellipse_50" data-name="Ellipse 50" cx="5" cy="5" r="5" transform="translate(92 3491)" fill="#f2fcfa"/>
    <circle id="Ellipse_51" data-name="Ellipse 51" cx="5" cy="5" r="5" transform="translate(112 3491)" fill="#f2fcfa"/>
    <circle id="Ellipse_52" data-name="Ellipse 52" cx="5" cy="5" r="5" transform="translate(92 3511)" fill="#f2fcfa"/>
    <circle id="Ellipse_53" data-name="Ellipse 53" cx="5" cy="5" r="5" transform="translate(112 3511)" fill="#f2fcfa"/>
    <circle id="Ellipse_54" data-name="Ellipse 54" cx="5" cy="5" r="5" transform="translate(92 3531)" fill="#f2fcfa"/>
    <circle id="Ellipse_55" data-name="Ellipse 55" cx="5" cy="5" r="5" transform="translate(112 3531)" fill="#f2fcfa"/>
    <circle id="Ellipse_56" data-name="Ellipse 56" cx="5" cy="5" r="5" transform="translate(92 3551)" fill="#f2fcfa"/>
    <circle id="Ellipse_57" data-name="Ellipse 57" cx="5" cy="5" r="5" transform="translate(112 3551)" fill="#f2fcfa"/>
    <circle id="Ellipse_58" data-name="Ellipse 58" cx="5" cy="5" r="5" transform="translate(132 3491)" fill="#f2fcfa"/>
    <circle id="Ellipse_59" data-name="Ellipse 59" cx="5" cy="5" r="5" transform="translate(152 3491)" fill="#f2fcfa"/>
    <circle id="Ellipse_60" data-name="Ellipse 60" cx="5" cy="5" r="5" transform="translate(132 3511)" fill="#f2fcfa"/>
    <circle id="Ellipse_61" data-name="Ellipse 61" cx="5" cy="5" r="5" transform="translate(152 3511)" fill="#f2fcfa"/>
    <circle id="Ellipse_62" data-name="Ellipse 62" cx="5" cy="5" r="5" transform="translate(132 3531)" fill="#f2fcfa"/>
    <circle id="Ellipse_63" data-name="Ellipse 63" cx="5" cy="5" r="5" transform="translate(152 3531)" fill="#f2fcfa"/>
    <circle id="Ellipse_64" data-name="Ellipse 64" cx="5" cy="5" r="5" transform="translate(132 3551)" fill="#f2fcfa"/>
    <circle id="Ellipse_65" data-name="Ellipse 65" cx="5" cy="5" r="5" transform="translate(152 3551)" fill="#f2fcfa"/>
    <circle id="Ellipse_66" data-name="Ellipse 66" cx="5" cy="5" r="5" transform="translate(92 3571)" fill="#f2fcfa"/>
    <circle id="Ellipse_67" data-name="Ellipse 67" cx="5" cy="5" r="5" transform="translate(112 3571)" fill="#f2fcfa"/>
    <circle id="Ellipse_68" data-name="Ellipse 68" cx="5" cy="5" r="5" transform="translate(92 3591)" fill="#f2fcfa"/>
    <circle id="Ellipse_69" data-name="Ellipse 69" cx="5" cy="5" r="5" transform="translate(112 3591)" fill="#f2fcfa"/>
    <circle id="Ellipse_70" data-name="Ellipse 70" cx="5" cy="5" r="5" transform="translate(92 3611)" fill="#f2fcfa"/>
    <circle id="Ellipse_71" data-name="Ellipse 71" cx="5" cy="5" r="5" transform="translate(112 3611)" fill="#f2fcfa"/>
    <circle id="Ellipse_72" data-name="Ellipse 72" cx="5" cy="5" r="5" transform="translate(92 3631)" fill="#f2fcfa"/>
    <circle id="Ellipse_73" data-name="Ellipse 73" cx="5" cy="5" r="5" transform="translate(112 3631)" fill="#f2fcfa"/>
    <circle id="Ellipse_74" data-name="Ellipse 74" cx="5" cy="5" r="5" transform="translate(132 3571)" fill="#f2fcfa"/>
    <circle id="Ellipse_75" data-name="Ellipse 75" cx="5" cy="5" r="5" transform="translate(152 3571)" fill="#f2fcfa"/>
    <circle id="Ellipse_76" data-name="Ellipse 76" cx="5" cy="5" r="5" transform="translate(132 3591)" fill="#f2fcfa"/>
    <circle id="Ellipse_77" data-name="Ellipse 77" cx="5" cy="5" r="5" transform="translate(152 3591)" fill="#f2fcfa"/>
    <circle id="Ellipse_78" data-name="Ellipse 78" cx="5" cy="5" r="5" transform="translate(132 3611)" fill="#f2fcfa"/>
    <circle id="Ellipse_79" data-name="Ellipse 79" cx="5" cy="5" r="5" transform="translate(152 3611)" fill="#f2fcfa"/>
    <circle id="Ellipse_80" data-name="Ellipse 80" cx="5" cy="5" r="5" transform="translate(132 3631)" fill="#f2fcfa"/>
    <circle id="Ellipse_81" data-name="Ellipse 81" cx="5" cy="5" r="5" transform="translate(152 3631)" fill="#f2fcfa"/>
    <circle id="Ellipse_82" data-name="Ellipse 82" cx="5" cy="5" r="5" transform="translate(12 3651)" fill="#f2fcfa"/>
    <circle id="Ellipse_83" data-name="Ellipse 83" cx="5" cy="5" r="5" transform="translate(32 3651)" fill="#f2fcfa"/>
    <circle id="Ellipse_84" data-name="Ellipse 84" cx="5" cy="5" r="5" transform="translate(12 3671)" fill="#f2fcfa"/>
    <circle id="Ellipse_85" data-name="Ellipse 85" cx="5" cy="5" r="5" transform="translate(32 3671)" fill="#f2fcfa"/>
    <circle id="Ellipse_86" data-name="Ellipse 86" cx="5" cy="5" r="5" transform="translate(12 3691)" fill="#f2fcfa"/>
    <circle id="Ellipse_87" data-name="Ellipse 87" cx="5" cy="5" r="5" transform="translate(32 3691)" fill="#f2fcfa"/>
    <circle id="Ellipse_88" data-name="Ellipse 88" cx="5" cy="5" r="5" transform="translate(12 3711)" fill="#f2fcfa"/>
    <circle id="Ellipse_89" data-name="Ellipse 89" cx="5" cy="5" r="5" transform="translate(32 3711)" fill="#f2fcfa"/>
    <circle id="Ellipse_90" data-name="Ellipse 90" cx="5" cy="5" r="5" transform="translate(52 3651)" fill="#f2fcfa"/>
    <circle id="Ellipse_91" data-name="Ellipse 91" cx="5" cy="5" r="5" transform="translate(72 3651)" fill="#f2fcfa"/>
    <circle id="Ellipse_92" data-name="Ellipse 92" cx="5" cy="5" r="5" transform="translate(52 3671)" fill="#f2fcfa"/>
    <circle id="Ellipse_93" data-name="Ellipse 93" cx="5" cy="5" r="5" transform="translate(72 3671)" fill="#f2fcfa"/>
    <circle id="Ellipse_94" data-name="Ellipse 94" cx="5" cy="5" r="5" transform="translate(52 3691)" fill="#f2fcfa"/>
    <circle id="Ellipse_95" data-name="Ellipse 95" cx="5" cy="5" r="5" transform="translate(72 3691)" fill="#f2fcfa"/>
    <circle id="Ellipse_96" data-name="Ellipse 96" cx="5" cy="5" r="5" transform="translate(52 3711)" fill="#f2fcfa"/>
    <circle id="Ellipse_97" data-name="Ellipse 97" cx="5" cy="5" r="5" transform="translate(72 3711)" fill="#f2fcfa"/>
    <circle id="Ellipse_98" data-name="Ellipse 98" cx="5" cy="5" r="5" transform="translate(12 3731)" fill="#f2fcfa"/>
    <circle id="Ellipse_99" data-name="Ellipse 99" cx="5" cy="5" r="5" transform="translate(32 3731)" fill="#f2fcfa"/>
    <circle id="Ellipse_100" data-name="Ellipse 100" cx="5" cy="5" r="5" transform="translate(12 3751)" fill="#f2fcfa"/>
    <circle id="Ellipse_101" data-name="Ellipse 101" cx="5" cy="5" r="5" transform="translate(32 3751)" fill="#f2fcfa"/>
    <circle id="Ellipse_102" data-name="Ellipse 102" cx="5" cy="5" r="5" transform="translate(12 3771)" fill="#f2fcfa"/>
    <circle id="Ellipse_103" data-name="Ellipse 103" cx="5" cy="5" r="5" transform="translate(32 3771)" fill="#f2fcfa"/>
    <circle id="Ellipse_104" data-name="Ellipse 104" cx="5" cy="5" r="5" transform="translate(12 3791)" fill="#f2fcfa"/>
    <circle id="Ellipse_105" data-name="Ellipse 105" cx="5" cy="5" r="5" transform="translate(32 3791)" fill="#f2fcfa"/>
    <circle id="Ellipse_106" data-name="Ellipse 106" cx="5" cy="5" r="5" transform="translate(52 3731)" fill="#f2fcfa"/>
    <circle id="Ellipse_107" data-name="Ellipse 107" cx="5" cy="5" r="5" transform="translate(72 3731)" fill="#f2fcfa"/>
    <circle id="Ellipse_108" data-name="Ellipse 108" cx="5" cy="5" r="5" transform="translate(52 3751)" fill="#f2fcfa"/>
    <circle id="Ellipse_109" data-name="Ellipse 109" cx="5" cy="5" r="5" transform="translate(72 3751)" fill="#f2fcfa"/>
    <circle id="Ellipse_110" data-name="Ellipse 110" cx="5" cy="5" r="5" transform="translate(52 3771)" fill="#f2fcfa"/>
    <circle id="Ellipse_111" data-name="Ellipse 111" cx="5" cy="5" r="5" transform="translate(72 3771)" fill="#f2fcfa"/>
    <circle id="Ellipse_112" data-name="Ellipse 112" cx="5" cy="5" r="5" transform="translate(52 3791)" fill="#f2fcfa"/>
    <circle id="Ellipse_113" data-name="Ellipse 113" cx="5" cy="5" r="5" transform="translate(72 3791)" fill="#f2fcfa"/>
    <circle id="Ellipse_114" data-name="Ellipse 114" cx="5" cy="5" r="5" transform="translate(92 3651)" fill="#f2fcfa"/>
    <circle id="Ellipse_115" data-name="Ellipse 115" cx="5" cy="5" r="5" transform="translate(112 3651)" fill="#f2fcfa"/>
    <circle id="Ellipse_116" data-name="Ellipse 116" cx="5" cy="5" r="5" transform="translate(92 3671)" fill="#f2fcfa"/>
    <circle id="Ellipse_117" data-name="Ellipse 117" cx="5" cy="5" r="5" transform="translate(112 3671)" fill="#f2fcfa"/>
    <circle id="Ellipse_118" data-name="Ellipse 118" cx="5" cy="5" r="5" transform="translate(92 3691)" fill="#f2fcfa"/>
    <circle id="Ellipse_119" data-name="Ellipse 119" cx="5" cy="5" r="5" transform="translate(112 3691)" fill="#f2fcfa"/>
    <circle id="Ellipse_120" data-name="Ellipse 120" cx="5" cy="5" r="5" transform="translate(92 3711)" fill="#f2fcfa"/>
    <circle id="Ellipse_121" data-name="Ellipse 121" cx="5" cy="5" r="5" transform="translate(112 3711)" fill="#f2fcfa"/>
    <circle id="Ellipse_122" data-name="Ellipse 122" cx="5" cy="5" r="5" transform="translate(132 3651)" fill="#f2fcfa"/>
    <circle id="Ellipse_123" data-name="Ellipse 123" cx="5" cy="5" r="5" transform="translate(152 3651)" fill="#f2fcfa"/>
    <circle id="Ellipse_124" data-name="Ellipse 124" cx="5" cy="5" r="5" transform="translate(132 3671)" fill="#f2fcfa"/>
    <circle id="Ellipse_125" data-name="Ellipse 125" cx="5" cy="5" r="5" transform="translate(152 3671)" fill="#f2fcfa"/>
    <circle id="Ellipse_126" data-name="Ellipse 126" cx="5" cy="5" r="5" transform="translate(132 3691)" fill="#f2fcfa"/>
    <circle id="Ellipse_127" data-name="Ellipse 127" cx="5" cy="5" r="5" transform="translate(152 3691)" fill="#f2fcfa"/>
    <circle id="Ellipse_128" data-name="Ellipse 128" cx="5" cy="5" r="5" transform="translate(132 3711)" fill="#f2fcfa"/>
    <circle id="Ellipse_129" data-name="Ellipse 129" cx="5" cy="5" r="5" transform="translate(152 3711)" fill="#f2fcfa"/>
    <circle id="Ellipse_130" data-name="Ellipse 130" cx="5" cy="5" r="5" transform="translate(92 3731)" fill="#f2fcfa"/>
    <circle id="Ellipse_131" data-name="Ellipse 131" cx="5" cy="5" r="5" transform="translate(112 3731)" fill="#f2fcfa"/>
    <circle id="Ellipse_132" data-name="Ellipse 132" cx="5" cy="5" r="5" transform="translate(92 3751)" fill="#f2fcfa"/>
    <circle id="Ellipse_133" data-name="Ellipse 133" cx="5" cy="5" r="5" transform="translate(112 3751)" fill="#f2fcfa"/>
    <circle id="Ellipse_134" data-name="Ellipse 134" cx="5" cy="5" r="5" transform="translate(92 3771)" fill="#f2fcfa"/>
    <circle id="Ellipse_135" data-name="Ellipse 135" cx="5" cy="5" r="5" transform="translate(112 3771)" fill="#f2fcfa"/>
    <circle id="Ellipse_136" data-name="Ellipse 136" cx="5" cy="5" r="5" transform="translate(92 3791)" fill="#f2fcfa"/>
    <circle id="Ellipse_137" data-name="Ellipse 137" cx="5" cy="5" r="5" transform="translate(112 3791)" fill="#f2fcfa"/>
    <circle id="Ellipse_138" data-name="Ellipse 138" cx="5" cy="5" r="5" transform="translate(132 3731)" fill="#f2fcfa"/>
    <circle id="Ellipse_139" data-name="Ellipse 139" cx="5" cy="5" r="5" transform="translate(152 3731)" fill="#f2fcfa"/>
    <circle id="Ellipse_140" data-name="Ellipse 140" cx="5" cy="5" r="5" transform="translate(132 3751)" fill="#f2fcfa"/>
    <circle id="Ellipse_141" data-name="Ellipse 141" cx="5" cy="5" r="5" transform="translate(152 3751)" fill="#f2fcfa"/>
    <circle id="Ellipse_142" data-name="Ellipse 142" cx="5" cy="5" r="5" transform="translate(132 3771)" fill="#f2fcfa"/>
    <circle id="Ellipse_143" data-name="Ellipse 143" cx="5" cy="5" r="5" transform="translate(152 3771)" fill="#f2fcfa"/>
    <circle id="Ellipse_144" data-name="Ellipse 144" cx="5" cy="5" r="5" transform="translate(132 3791)" fill="#f2fcfa"/>
    <circle id="Ellipse_145" data-name="Ellipse 145" cx="5" cy="5" r="5" transform="translate(152 3791)" fill="#f2fcfa"/>
    <circle id="Ellipse_146" data-name="Ellipse 146" cx="5" cy="5" r="5" transform="translate(172 3571)" fill="#f2fcfa"/>
    <circle id="Ellipse_147" data-name="Ellipse 147" cx="5" cy="5" r="5" transform="translate(192 3571)" fill="#f2fcfa"/>
    <circle id="Ellipse_148" data-name="Ellipse 148" cx="5" cy="5" r="5" transform="translate(172 3591)" fill="#f2fcfa"/>
    <circle id="Ellipse_149" data-name="Ellipse 149" cx="5" cy="5" r="5" transform="translate(192 3591)" fill="#f2fcfa"/>
    <circle id="Ellipse_150" data-name="Ellipse 150" cx="5" cy="5" r="5" transform="translate(172 3611)" fill="#f2fcfa"/>
    <circle id="Ellipse_151" data-name="Ellipse 151" cx="5" cy="5" r="5" transform="translate(192 3611)" fill="#f2fcfa"/>
    <circle id="Ellipse_152" data-name="Ellipse 152" cx="5" cy="5" r="5" transform="translate(172 3631)" fill="#f2fcfa"/>
    <circle id="Ellipse_153" data-name="Ellipse 153" cx="5" cy="5" r="5" transform="translate(192 3631)" fill="#f2fcfa"/>
    <circle id="Ellipse_178" data-name="Ellipse 178" cx="5" cy="5" r="5" transform="translate(172 3651)" fill="#f2fcfa"/>
    <circle id="Ellipse_179" data-name="Ellipse 179" cx="5" cy="5" r="5" transform="translate(192 3651)" fill="#f2fcfa"/>
    <circle id="Ellipse_180" data-name="Ellipse 180" cx="5" cy="5" r="5" transform="translate(172 3671)" fill="#f2fcfa"/>
    <circle id="Ellipse_181" data-name="Ellipse 181" cx="5" cy="5" r="5" transform="translate(192 3671)" fill="#f2fcfa"/>
    <circle id="Ellipse_182" data-name="Ellipse 182" cx="5" cy="5" r="5" transform="translate(172 3691)" fill="#f2fcfa"/>
    <circle id="Ellipse_183" data-name="Ellipse 183" cx="5" cy="5" r="5" transform="translate(192 3691)" fill="#f2fcfa"/>
    <circle id="Ellipse_184" data-name="Ellipse 184" cx="5" cy="5" r="5" transform="translate(172 3711)" fill="#f2fcfa"/>
    <circle id="Ellipse_185" data-name="Ellipse 185" cx="5" cy="5" r="5" transform="translate(192 3711)" fill="#f2fcfa"/>
    <circle id="Ellipse_190" data-name="Ellipse 190" cx="5" cy="5" r="5" transform="translate(12 3411)" fill="#f2fcfa"/>
    <circle id="Ellipse_191" data-name="Ellipse 191" cx="5" cy="5" r="5" transform="translate(32 3411)" fill="#f2fcfa"/>
    <circle id="Ellipse_192" data-name="Ellipse 192" cx="5" cy="5" r="5" transform="translate(12 3431)" fill="#f2fcfa"/>
    <circle id="Ellipse_193" data-name="Ellipse 193" cx="5" cy="5" r="5" transform="translate(32 3431)" fill="#f2fcfa"/>
    <circle id="Ellipse_194" data-name="Ellipse 194" cx="5" cy="5" r="5" transform="translate(12 3451)" fill="#f2fcfa"/>
    <circle id="Ellipse_195" data-name="Ellipse 195" cx="5" cy="5" r="5" transform="translate(32 3451)" fill="#f2fcfa"/>
    <circle id="Ellipse_196" data-name="Ellipse 196" cx="5" cy="5" r="5" transform="translate(12 3471)" fill="#f2fcfa"/>
    <circle id="Ellipse_197" data-name="Ellipse 197" cx="5" cy="5" r="5" transform="translate(32 3471)" fill="#f2fcfa"/>
    <circle id="Ellipse_198" data-name="Ellipse 198" cx="5" cy="5" r="5" transform="translate(52 3411)" fill="#f2fcfa"/>
    <circle id="Ellipse_199" data-name="Ellipse 199" cx="5" cy="5" r="5" transform="translate(72 3411)" fill="#f2fcfa"/>
    <circle id="Ellipse_200" data-name="Ellipse 200" cx="5" cy="5" r="5" transform="translate(52 3431)" fill="#f2fcfa"/>
    <circle id="Ellipse_201" data-name="Ellipse 201" cx="5" cy="5" r="5" transform="translate(72 3431)" fill="#f2fcfa"/>
    <circle id="Ellipse_202" data-name="Ellipse 202" cx="5" cy="5" r="5" transform="translate(52 3451)" fill="#f2fcfa"/>
    <circle id="Ellipse_203" data-name="Ellipse 203" cx="5" cy="5" r="5" transform="translate(72 3451)" fill="#f2fcfa"/>
    <circle id="Ellipse_204" data-name="Ellipse 204" cx="5" cy="5" r="5" transform="translate(52 3471)" fill="#f2fcfa"/>
    <circle id="Ellipse_205" data-name="Ellipse 205" cx="5" cy="5" r="5" transform="translate(72 3471)" fill="#f2fcfa"/>
    <circle id="Ellipse_206" data-name="Ellipse 206" cx="5" cy="5" r="5" transform="translate(92 3411)" fill="#f2fcfa"/>
    <circle id="Ellipse_207" data-name="Ellipse 207" cx="5" cy="5" r="5" transform="translate(112 3411)" fill="#f2fcfa"/>
    <circle id="Ellipse_208" data-name="Ellipse 208" cx="5" cy="5" r="5" transform="translate(92 3431)" fill="#f2fcfa"/>
    <circle id="Ellipse_209" data-name="Ellipse 209" cx="5" cy="5" r="5" transform="translate(112 3431)" fill="#f2fcfa"/>
    <circle id="Ellipse_210" data-name="Ellipse 210" cx="5" cy="5" r="5" transform="translate(92 3451)" fill="#f2fcfa"/>
    <circle id="Ellipse_211" data-name="Ellipse 211" cx="5" cy="5" r="5" transform="translate(112 3451)" fill="#f2fcfa"/>
    <circle id="Ellipse_212" data-name="Ellipse 212" cx="5" cy="5" r="5" transform="translate(92 3471)" fill="#f2fcfa"/>
    <circle id="Ellipse_213" data-name="Ellipse 213" cx="5" cy="5" r="5" transform="translate(112 3471)" fill="#f2fcfa"/>
    <circle id="Ellipse_214" data-name="Ellipse 214" cx="5" cy="5" r="5" transform="translate(132 3411)" fill="#f2fcfa"/>
    <circle id="Ellipse_215" data-name="Ellipse 215" cx="5" cy="5" r="5" transform="translate(152 3411)" fill="#f2fcfa"/>
    <circle id="Ellipse_216" data-name="Ellipse 216" cx="5" cy="5" r="5" transform="translate(132 3431)" fill="#f2fcfa"/>
    <circle id="Ellipse_217" data-name="Ellipse 217" cx="5" cy="5" r="5" transform="translate(152 3431)" fill="#f2fcfa"/>
    <circle id="Ellipse_218" data-name="Ellipse 218" cx="5" cy="5" r="5" transform="translate(132 3451)" fill="#f2fcfa"/>
    <circle id="Ellipse_219" data-name="Ellipse 219" cx="5" cy="5" r="5" transform="translate(152 3451)" fill="#f2fcfa"/>
    <circle id="Ellipse_220" data-name="Ellipse 220" cx="5" cy="5" r="5" transform="translate(132 3471)" fill="#f2fcfa"/>
    <circle id="Ellipse_221" data-name="Ellipse 221" cx="5" cy="5" r="5" transform="translate(152 3471)" fill="#f2fcfa"/>
    <circle id="Ellipse_222" data-name="Ellipse 222" cx="5" cy="5" r="5" transform="translate(12 3331)" fill="#f2fcfa"/>
    <circle id="Ellipse_223" data-name="Ellipse 223" cx="5" cy="5" r="5" transform="translate(32 3331)" fill="#f2fcfa"/>
    <circle id="Ellipse_224" data-name="Ellipse 224" cx="5" cy="5" r="5" transform="translate(12 3351)" fill="#f2fcfa"/>
    <circle id="Ellipse_225" data-name="Ellipse 225" cx="5" cy="5" r="5" transform="translate(32 3351)" fill="#f2fcfa"/>
    <circle id="Ellipse_226" data-name="Ellipse 226" cx="5" cy="5" r="5" transform="translate(12 3371)" fill="#f2fcfa"/>
    <circle id="Ellipse_227" data-name="Ellipse 227" cx="5" cy="5" r="5" transform="translate(32 3371)" fill="#f2fcfa"/>
    <circle id="Ellipse_228" data-name="Ellipse 228" cx="5" cy="5" r="5" transform="translate(12 3391)" fill="#f2fcfa"/>
    <circle id="Ellipse_229" data-name="Ellipse 229" cx="5" cy="5" r="5" transform="translate(32 3391)" fill="#f2fcfa"/>
    <circle id="Ellipse_230" data-name="Ellipse 230" cx="5" cy="5" r="5" transform="translate(52 3331)" fill="#f2fcfa"/>
    <circle id="Ellipse_231" data-name="Ellipse 231" cx="5" cy="5" r="5" transform="translate(72 3331)" fill="#f2fcfa"/>
    <circle id="Ellipse_232" data-name="Ellipse 232" cx="5" cy="5" r="5" transform="translate(52 3351)" fill="#f2fcfa"/>
    <circle id="Ellipse_233" data-name="Ellipse 233" cx="5" cy="5" r="5" transform="translate(72 3351)" fill="#f2fcfa"/>
    <circle id="Ellipse_234" data-name="Ellipse 234" cx="5" cy="5" r="5" transform="translate(52 3371)" fill="#f2fcfa"/>
    <circle id="Ellipse_235" data-name="Ellipse 235" cx="5" cy="5" r="5" transform="translate(72 3371)" fill="#f2fcfa"/>
    <circle id="Ellipse_236" data-name="Ellipse 236" cx="5" cy="5" r="5" transform="translate(52 3391)" fill="#f2fcfa"/>
    <circle id="Ellipse_237" data-name="Ellipse 237" cx="5" cy="5" r="5" transform="translate(72 3391)" fill="#f2fcfa"/>
    <circle id="Ellipse_238" data-name="Ellipse 238" cx="5" cy="5" r="5" transform="translate(12 3251)" fill="#f2fcfa"/>
    <circle id="Ellipse_239" data-name="Ellipse 239" cx="5" cy="5" r="5" transform="translate(32 3251)" fill="#f2fcfa"/>
    <circle id="Ellipse_240" data-name="Ellipse 240" cx="5" cy="5" r="5" transform="translate(12 3271)" fill="#f2fcfa"/>
    <circle id="Ellipse_241" data-name="Ellipse 241" cx="5" cy="5" r="5" transform="translate(32 3271)" fill="#f2fcfa"/>
    <circle id="Ellipse_242" data-name="Ellipse 242" cx="5" cy="5" r="5" transform="translate(12 3291)" fill="#f2fcfa"/>
    <circle id="Ellipse_243" data-name="Ellipse 243" cx="5" cy="5" r="5" transform="translate(32 3291)" fill="#f2fcfa"/>
    <circle id="Ellipse_244" data-name="Ellipse 244" cx="5" cy="5" r="5" transform="translate(12 3311)" fill="#f2fcfa"/>
    <circle id="Ellipse_245" data-name="Ellipse 245" cx="5" cy="5" r="5" transform="translate(32 3311)" fill="#f2fcfa"/>
    <circle id="Ellipse_246" data-name="Ellipse 246" cx="5" cy="5" r="5" transform="translate(52 3251)" fill="#f2fcfa"/>
    <circle id="Ellipse_247" data-name="Ellipse 247" cx="5" cy="5" r="5" transform="translate(72 3251)" fill="#f2fcfa"/>
    <circle id="Ellipse_248" data-name="Ellipse 248" cx="5" cy="5" r="5" transform="translate(52 3271)" fill="#f2fcfa"/>
    <circle id="Ellipse_249" data-name="Ellipse 249" cx="5" cy="5" r="5" transform="translate(72 3271)" fill="#f2fcfa"/>
    <circle id="Ellipse_250" data-name="Ellipse 250" cx="5" cy="5" r="5" transform="translate(52 3291)" fill="#f2fcfa"/>
    <circle id="Ellipse_251" data-name="Ellipse 251" cx="5" cy="5" r="5" transform="translate(72 3291)" fill="#f2fcfa"/>
    <circle id="Ellipse_252" data-name="Ellipse 252" cx="5" cy="5" r="5" transform="translate(52 3311)" fill="#f2fcfa"/>
    <circle id="Ellipse_253" data-name="Ellipse 253" cx="5" cy="5" r="5" transform="translate(72 3311)" fill="#f2fcfa"/>
    <circle id="Ellipse_254" data-name="Ellipse 254" cx="5" cy="5" r="5" transform="translate(12 3891)" fill="#f2fcfa"/>
    <circle id="Ellipse_255" data-name="Ellipse 255" cx="5" cy="5" r="5" transform="translate(32 3891)" fill="#f2fcfa"/>
    <circle id="Ellipse_256" data-name="Ellipse 256" cx="5" cy="5" r="5" transform="translate(12 3911)" fill="#f2fcfa"/>
    <circle id="Ellipse_257" data-name="Ellipse 257" cx="5" cy="5" r="5" transform="translate(32 3911)" fill="#f2fcfa"/>
    <circle id="Ellipse_258" data-name="Ellipse 258" cx="5" cy="5" r="5" transform="translate(12 3931)" fill="#f2fcfa"/>
    <circle id="Ellipse_259" data-name="Ellipse 259" cx="5" cy="5" r="5" transform="translate(32 3931)" fill="#f2fcfa"/>
    <circle id="Ellipse_260" data-name="Ellipse 260" cx="5" cy="5" r="5" transform="translate(12 3951)" fill="#f2fcfa"/>
    <circle id="Ellipse_261" data-name="Ellipse 261" cx="5" cy="5" r="5" transform="translate(32 3951)" fill="#f2fcfa"/>
    <circle id="Ellipse_262" data-name="Ellipse 262" cx="5" cy="5" r="5" transform="translate(52 3891)" fill="#f2fcfa"/>
    <circle id="Ellipse_263" data-name="Ellipse 263" cx="5" cy="5" r="5" transform="translate(72 3891)" fill="#f2fcfa"/>
    <circle id="Ellipse_264" data-name="Ellipse 264" cx="5" cy="5" r="5" transform="translate(52 3911)" fill="#f2fcfa"/>
    <circle id="Ellipse_265" data-name="Ellipse 265" cx="5" cy="5" r="5" transform="translate(72 3911)" fill="#f2fcfa"/>
    <circle id="Ellipse_266" data-name="Ellipse 266" cx="5" cy="5" r="5" transform="translate(52 3931)" fill="#f2fcfa"/>
    <circle id="Ellipse_267" data-name="Ellipse 267" cx="5" cy="5" r="5" transform="translate(72 3931)" fill="#f2fcfa"/>
    <circle id="Ellipse_268" data-name="Ellipse 268" cx="5" cy="5" r="5" transform="translate(52 3951)" fill="#f2fcfa"/>
    <circle id="Ellipse_269" data-name="Ellipse 269" cx="5" cy="5" r="5" transform="translate(72 3951)" fill="#f2fcfa"/>
    <circle id="Ellipse_270" data-name="Ellipse 270" cx="5" cy="5" r="5" transform="translate(12 3811)" fill="#f2fcfa"/>
    <circle id="Ellipse_271" data-name="Ellipse 271" cx="5" cy="5" r="5" transform="translate(32 3811)" fill="#f2fcfa"/>
    <circle id="Ellipse_272" data-name="Ellipse 272" cx="5" cy="5" r="5" transform="translate(12 3831)" fill="#f2fcfa"/>
    <circle id="Ellipse_273" data-name="Ellipse 273" cx="5" cy="5" r="5" transform="translate(32 3831)" fill="#f2fcfa"/>
    <circle id="Ellipse_274" data-name="Ellipse 274" cx="5" cy="5" r="5" transform="translate(12 3851)" fill="#f2fcfa"/>
    <circle id="Ellipse_275" data-name="Ellipse 275" cx="5" cy="5" r="5" transform="translate(32 3851)" fill="#f2fcfa"/>
    <circle id="Ellipse_276" data-name="Ellipse 276" cx="5" cy="5" r="5" transform="translate(12 3871)" fill="#f2fcfa"/>
    <circle id="Ellipse_277" data-name="Ellipse 277" cx="5" cy="5" r="5" transform="translate(32 3871)" fill="#f2fcfa"/>
    <circle id="Ellipse_278" data-name="Ellipse 278" cx="5" cy="5" r="5" transform="translate(52 3811)" fill="#f2fcfa"/>
    <circle id="Ellipse_279" data-name="Ellipse 279" cx="5" cy="5" r="5" transform="translate(72 3811)" fill="#f2fcfa"/>
    <circle id="Ellipse_280" data-name="Ellipse 280" cx="5" cy="5" r="5" transform="translate(52 3831)" fill="#f2fcfa"/>
    <circle id="Ellipse_281" data-name="Ellipse 281" cx="5" cy="5" r="5" transform="translate(72 3831)" fill="#f2fcfa"/>
    <circle id="Ellipse_282" data-name="Ellipse 282" cx="5" cy="5" r="5" transform="translate(52 3851)" fill="#f2fcfa"/>
    <circle id="Ellipse_283" data-name="Ellipse 283" cx="5" cy="5" r="5" transform="translate(72 3851)" fill="#f2fcfa"/>
    <circle id="Ellipse_284" data-name="Ellipse 284" cx="5" cy="5" r="5" transform="translate(52 3871)" fill="#f2fcfa"/>
    <circle id="Ellipse_285" data-name="Ellipse 285" cx="5" cy="5" r="5" transform="translate(72 3871)" fill="#f2fcfa"/>
    <circle id="Ellipse_286" data-name="Ellipse 286" cx="5" cy="5" r="5" transform="translate(92 3811)" fill="#f2fcfa"/>
    <circle id="Ellipse_287" data-name="Ellipse 287" cx="5" cy="5" r="5" transform="translate(112 3811)" fill="#f2fcfa"/>
    <circle id="Ellipse_288" data-name="Ellipse 288" cx="5" cy="5" r="5" transform="translate(92 3831)" fill="#f2fcfa"/>
    <circle id="Ellipse_289" data-name="Ellipse 289" cx="5" cy="5" r="5" transform="translate(112 3831)" fill="#f2fcfa"/>
    <circle id="Ellipse_290" data-name="Ellipse 290" cx="5" cy="5" r="5" transform="translate(92 3851)" fill="#f2fcfa"/>
    <circle id="Ellipse_291" data-name="Ellipse 291" cx="5" cy="5" r="5" transform="translate(112 3851)" fill="#f2fcfa"/>
    <circle id="Ellipse_292" data-name="Ellipse 292" cx="5" cy="5" r="5" transform="translate(92 3871)" fill="#f2fcfa"/>
    <circle id="Ellipse_293" data-name="Ellipse 293" cx="5" cy="5" r="5" transform="translate(112 3871)" fill="#f2fcfa"/>
    <circle id="Ellipse_294" data-name="Ellipse 294" cx="5" cy="5" r="5" transform="translate(132 3811)" fill="#f2fcfa"/>
    <circle id="Ellipse_295" data-name="Ellipse 295" cx="5" cy="5" r="5" transform="translate(152 3811)" fill="#f2fcfa"/>
    <circle id="Ellipse_296" data-name="Ellipse 296" cx="5" cy="5" r="5" transform="translate(132 3831)" fill="#f2fcfa"/>
    <circle id="Ellipse_297" data-name="Ellipse 297" cx="5" cy="5" r="5" transform="translate(152 3831)" fill="#f2fcfa"/>
    <circle id="Ellipse_298" data-name="Ellipse 298" cx="5" cy="5" r="5" transform="translate(132 3851)" fill="#f2fcfa"/>
    <circle id="Ellipse_299" data-name="Ellipse 299" cx="5" cy="5" r="5" transform="translate(152 3851)" fill="#f2fcfa"/>
    <circle id="Ellipse_300" data-name="Ellipse 300" cx="5" cy="5" r="5" transform="translate(132 3871)" fill="#f2fcfa"/>
    <circle id="Ellipse_301" data-name="Ellipse 301" cx="5" cy="5" r="5" transform="translate(152 3871)" fill="#f2fcfa"/>
    <circle id="Ellipse_302" data-name="Ellipse 302" cx="5" cy="5" r="5" transform="translate(12 3971)" fill="#f2fcfa"/>
    <circle id="Ellipse_303" data-name="Ellipse 303" cx="5" cy="5" r="5" transform="translate(32 3971)" fill="#f2fcfa"/>
    <circle id="Ellipse_304" data-name="Ellipse 304" cx="5" cy="5" r="5" transform="translate(12 3991)" fill="#f2fcfa"/>
    <circle id="Ellipse_305" data-name="Ellipse 305" cx="5" cy="5" r="5" transform="translate(32 3991)" fill="#f2fcfa"/>
    <circle id="Ellipse_306" data-name="Ellipse 306" cx="5" cy="5" r="5" transform="translate(12 4011)" fill="#f2fcfa"/>
    <circle id="Ellipse_307" data-name="Ellipse 307" cx="5" cy="5" r="5" transform="translate(32 4011)" fill="#f2fcfa"/>
    <circle id="Ellipse_308" data-name="Ellipse 308" cx="5" cy="5" r="5" transform="translate(12 4031)" fill="#f2fcfa"/>
    <circle id="Ellipse_309" data-name="Ellipse 309" cx="5" cy="5" r="5" transform="translate(32 4031)" fill="#f2fcfa"/>
    <circle id="Ellipse_310" data-name="Ellipse 310" cx="5" cy="5" r="5" transform="translate(52 3971)" fill="#f2fcfa"/>
    <circle id="Ellipse_311" data-name="Ellipse 311" cx="5" cy="5" r="5" transform="translate(72 3971)" fill="#f2fcfa"/>
    <circle id="Ellipse_312" data-name="Ellipse 312" cx="5" cy="5" r="5" transform="translate(52 3991)" fill="#f2fcfa"/>
    <circle id="Ellipse_313" data-name="Ellipse 313" cx="5" cy="5" r="5" transform="translate(72 3991)" fill="#f2fcfa"/>
    <circle id="Ellipse_314" data-name="Ellipse 314" cx="5" cy="5" r="5" transform="translate(52 4011)" fill="#f2fcfa"/>
    <circle id="Ellipse_315" data-name="Ellipse 315" cx="5" cy="5" r="5" transform="translate(72 4011)" fill="#f2fcfa"/>
    <circle id="Ellipse_316" data-name="Ellipse 316" cx="5" cy="5" r="5" transform="translate(52 4031)" fill="#f2fcfa"/>
    <circle id="Ellipse_317" data-name="Ellipse 317" cx="5" cy="5" r="5" transform="translate(72 4031)" fill="#f2fcfa"/>
  </g>
</svg>
