<svg xmlns="http://www.w3.org/2000/svg" width="230" height="980" viewBox="0 0 230 980">
  <g id="Group_25" data-name="Group 25" transform="translate(240 2400) rotate(180)">
    <circle id="Ellipse_37" data-name="Ellipse 37" cx="10" cy="10" r="10" transform="translate(10 2200)" fill="#373857"/>
    <circle id="Ellipse_38" data-name="Ellipse 38" cx="10" cy="10" r="10" transform="translate(40 2200)" fill="#373857"/>
    <circle id="Ellipse_39" data-name="Ellipse 39" cx="10" cy="10" r="10" transform="translate(10 2230)" fill="#373857"/>
    <circle id="Ellipse_40" data-name="Ellipse 40" cx="10" cy="10" r="10" transform="translate(40 2230)" fill="#373857"/>
    <circle id="Ellipse_41" data-name="Ellipse 41" cx="10" cy="10" r="10" transform="translate(70 2200)" fill="#373857"/>
    <circle id="Ellipse_42" data-name="Ellipse 42" cx="10" cy="10" r="10" transform="translate(100 2200)" fill="#373857"/>
    <circle id="Ellipse_43" data-name="Ellipse 43" cx="10" cy="10" r="10" transform="translate(70 2230)" fill="#373857"/>
    <circle id="Ellipse_44" data-name="Ellipse 44" cx="10" cy="10" r="10" transform="translate(100 2230)" fill="#373857"/>
    <circle id="Ellipse_45" data-name="Ellipse 45" cx="10" cy="10" r="10" transform="translate(10 2260)" fill="#373857"/>
    <circle id="Ellipse_46" data-name="Ellipse 46" cx="10" cy="10" r="10" transform="translate(40 2260)" fill="#373857"/>
    <circle id="Ellipse_47" data-name="Ellipse 47" cx="10" cy="10" r="10" transform="translate(10 2290)" fill="#373857"/>
    <circle id="Ellipse_48" data-name="Ellipse 48" cx="10" cy="10" r="10" transform="translate(40 2290)" fill="#373857"/>
    <circle id="Ellipse_49" data-name="Ellipse 49" cx="10" cy="10" r="10" transform="translate(70 2260)" fill="#373857"/>
    <circle id="Ellipse_50" data-name="Ellipse 50" cx="10" cy="10" r="10" transform="translate(100 2260)" fill="#373857"/>
    <circle id="Ellipse_51" data-name="Ellipse 51" cx="10" cy="10" r="10" transform="translate(70 2290)" fill="#373857"/>
    <circle id="Ellipse_52" data-name="Ellipse 52" cx="10" cy="10" r="10" transform="translate(100 2290)" fill="#373857"/>
    <circle id="Ellipse_53" data-name="Ellipse 53" cx="10" cy="10" r="10" transform="translate(130 2200)" fill="#373857"/>
    <circle id="Ellipse_54" data-name="Ellipse 54" cx="10" cy="10" r="10" transform="translate(160 2200)" fill="#373857"/>
    <circle id="Ellipse_55" data-name="Ellipse 55" cx="10" cy="10" r="10" transform="translate(130 2230)" fill="#373857"/>
    <circle id="Ellipse_56" data-name="Ellipse 56" cx="10" cy="10" r="10" transform="translate(160 2230)" fill="#373857"/>
    <circle id="Ellipse_57" data-name="Ellipse 57" cx="10" cy="10" r="10" transform="translate(190 2200)" fill="#373857"/>
    <circle id="Ellipse_58" data-name="Ellipse 58" cx="10" cy="10" r="10" transform="translate(220 2200)" fill="#373857"/>
    <circle id="Ellipse_59" data-name="Ellipse 59" cx="10" cy="10" r="10" transform="translate(190 2230)" fill="#373857"/>
    <circle id="Ellipse_60" data-name="Ellipse 60" cx="10" cy="10" r="10" transform="translate(220 2230)" fill="#373857"/>
    <circle id="Ellipse_61" data-name="Ellipse 61" cx="10" cy="10" r="10" transform="translate(130 2260)" fill="#373857"/>
    <circle id="Ellipse_62" data-name="Ellipse 62" cx="10" cy="10" r="10" transform="translate(160 2260)" fill="#373857"/>
    <circle id="Ellipse_63" data-name="Ellipse 63" cx="10" cy="10" r="10" transform="translate(130 2290)" fill="#373857"/>
    <circle id="Ellipse_64" data-name="Ellipse 64" cx="10" cy="10" r="10" transform="translate(160 2290)" fill="#373857"/>
    <circle id="Ellipse_65" data-name="Ellipse 65" cx="10" cy="10" r="10" transform="translate(190 2260)" fill="#373857"/>
    <circle id="Ellipse_66" data-name="Ellipse 66" cx="10" cy="10" r="10" transform="translate(220 2260)" fill="#373857"/>
    <circle id="Ellipse_67" data-name="Ellipse 67" cx="10" cy="10" r="10" transform="translate(190 2290)" fill="#373857"/>
    <circle id="Ellipse_68" data-name="Ellipse 68" cx="10" cy="10" r="10" transform="translate(220 2290)" fill="#373857"/>
    <circle id="Ellipse_69" data-name="Ellipse 69" cx="10" cy="10" r="10" transform="translate(10 2320)" fill="#373857"/>
    <circle id="Ellipse_70" data-name="Ellipse 70" cx="10" cy="10" r="10" transform="translate(40 2320)" fill="#373857"/>
    <circle id="Ellipse_71" data-name="Ellipse 71" cx="10" cy="10" r="10" transform="translate(10 2350)" fill="#373857"/>
    <circle id="Ellipse_72" data-name="Ellipse 72" cx="10" cy="10" r="10" transform="translate(40 2350)" fill="#373857"/>
    <circle id="Ellipse_73" data-name="Ellipse 73" cx="10" cy="10" r="10" transform="translate(70 2320)" fill="#373857"/>
    <circle id="Ellipse_74" data-name="Ellipse 74" cx="10" cy="10" r="10" transform="translate(100 2320)" fill="#373857"/>
    <circle id="Ellipse_75" data-name="Ellipse 75" cx="10" cy="10" r="10" transform="translate(70 2350)" fill="#373857"/>
    <circle id="Ellipse_76" data-name="Ellipse 76" cx="10" cy="10" r="10" transform="translate(100 2350)" fill="#373857"/>
    <circle id="Ellipse_77" data-name="Ellipse 77" cx="10" cy="10" r="10" transform="translate(10 2380)" fill="#373857"/>
    <circle id="Ellipse_78" data-name="Ellipse 78" cx="10" cy="10" r="10" transform="translate(40 2380)" fill="#373857"/>
    <circle id="Ellipse_81" data-name="Ellipse 81" cx="10" cy="10" r="10" transform="translate(70 2380)" fill="#373857"/>
    <circle id="Ellipse_82" data-name="Ellipse 82" cx="10" cy="10" r="10" transform="translate(100 2380)" fill="#373857"/>
    <circle id="Ellipse_85" data-name="Ellipse 85" cx="10" cy="10" r="10" transform="translate(130 2320)" fill="#373857"/>
    <circle id="Ellipse_86" data-name="Ellipse 86" cx="10" cy="10" r="10" transform="translate(160 2320)" fill="#373857"/>
    <circle id="Ellipse_87" data-name="Ellipse 87" cx="10" cy="10" r="10" transform="translate(130 2350)" fill="#373857"/>
    <circle id="Ellipse_88" data-name="Ellipse 88" cx="10" cy="10" r="10" transform="translate(160 2350)" fill="#373857"/>
    <circle id="Ellipse_89" data-name="Ellipse 89" cx="10" cy="10" r="10" transform="translate(190 2320)" fill="#373857"/>
    <circle id="Ellipse_90" data-name="Ellipse 90" cx="10" cy="10" r="10" transform="translate(220 2320)" fill="#373857"/>
    <circle id="Ellipse_91" data-name="Ellipse 91" cx="10" cy="10" r="10" transform="translate(190 2350)" fill="#373857"/>
    <circle id="Ellipse_92" data-name="Ellipse 92" cx="10" cy="10" r="10" transform="translate(220 2350)" fill="#373857"/>
    <circle id="Ellipse_93" data-name="Ellipse 93" cx="10" cy="10" r="10" transform="translate(130 2380)" fill="#373857"/>
    <circle id="Ellipse_94" data-name="Ellipse 94" cx="10" cy="10" r="10" transform="translate(160 2380)" fill="#373857"/>
    <circle id="Ellipse_97" data-name="Ellipse 97" cx="10" cy="10" r="10" transform="translate(190 2380)" fill="#373857"/>
    <circle id="Ellipse_98" data-name="Ellipse 98" cx="10" cy="10" r="10" transform="translate(220 2380)" fill="#373857"/>
    <circle id="Ellipse_293" data-name="Ellipse 293" cx="10" cy="10" r="10" transform="translate(10 1960)" fill="#373857"/>
    <circle id="Ellipse_294" data-name="Ellipse 294" cx="10" cy="10" r="10" transform="translate(40 1960)" fill="#373857"/>
    <circle id="Ellipse_295" data-name="Ellipse 295" cx="10" cy="10" r="10" transform="translate(10 1990)" fill="#373857"/>
    <circle id="Ellipse_296" data-name="Ellipse 296" cx="10" cy="10" r="10" transform="translate(40 1990)" fill="#373857"/>
    <circle id="Ellipse_297" data-name="Ellipse 297" cx="10" cy="10" r="10" transform="translate(70 1960)" fill="#373857"/>
    <circle id="Ellipse_298" data-name="Ellipse 298" cx="10" cy="10" r="10" transform="translate(100 1960)" fill="#373857"/>
    <circle id="Ellipse_299" data-name="Ellipse 299" cx="10" cy="10" r="10" transform="translate(70 1990)" fill="#373857"/>
    <circle id="Ellipse_300" data-name="Ellipse 300" cx="10" cy="10" r="10" transform="translate(100 1990)" fill="#373857"/>
    <circle id="Ellipse_301" data-name="Ellipse 301" cx="10" cy="10" r="10" transform="translate(10 2020)" fill="#373857"/>
    <circle id="Ellipse_302" data-name="Ellipse 302" cx="10" cy="10" r="10" transform="translate(40 2020)" fill="#373857"/>
    <circle id="Ellipse_303" data-name="Ellipse 303" cx="10" cy="10" r="10" transform="translate(10 2050)" fill="#373857"/>
    <circle id="Ellipse_304" data-name="Ellipse 304" cx="10" cy="10" r="10" transform="translate(40 2050)" fill="#373857"/>
    <circle id="Ellipse_305" data-name="Ellipse 305" cx="10" cy="10" r="10" transform="translate(70 2020)" fill="#373857"/>
    <circle id="Ellipse_306" data-name="Ellipse 306" cx="10" cy="10" r="10" transform="translate(100 2020)" fill="#373857"/>
    <circle id="Ellipse_307" data-name="Ellipse 307" cx="10" cy="10" r="10" transform="translate(70 2050)" fill="#373857"/>
    <circle id="Ellipse_308" data-name="Ellipse 308" cx="10" cy="10" r="10" transform="translate(100 2050)" fill="#373857"/>
    <circle id="Ellipse_309" data-name="Ellipse 309" cx="10" cy="10" r="10" transform="translate(130 1960)" fill="#373857"/>
    <circle id="Ellipse_310" data-name="Ellipse 310" cx="10" cy="10" r="10" transform="translate(160 1960)" fill="#373857"/>
    <circle id="Ellipse_311" data-name="Ellipse 311" cx="10" cy="10" r="10" transform="translate(130 1990)" fill="#373857"/>
    <circle id="Ellipse_312" data-name="Ellipse 312" cx="10" cy="10" r="10" transform="translate(160 1990)" fill="#373857"/>
    <circle id="Ellipse_313" data-name="Ellipse 313" cx="10" cy="10" r="10" transform="translate(190 1960)" fill="#373857"/>
    <circle id="Ellipse_314" data-name="Ellipse 314" cx="10" cy="10" r="10" transform="translate(220 1960)" fill="#373857"/>
    <circle id="Ellipse_315" data-name="Ellipse 315" cx="10" cy="10" r="10" transform="translate(190 1990)" fill="#373857"/>
    <circle id="Ellipse_316" data-name="Ellipse 316" cx="10" cy="10" r="10" transform="translate(220 1990)" fill="#373857"/>
    <circle id="Ellipse_317" data-name="Ellipse 317" cx="10" cy="10" r="10" transform="translate(130 2020)" fill="#373857"/>
    <circle id="Ellipse_318" data-name="Ellipse 318" cx="10" cy="10" r="10" transform="translate(160 2020)" fill="#373857"/>
    <circle id="Ellipse_319" data-name="Ellipse 319" cx="10" cy="10" r="10" transform="translate(130 2050)" fill="#373857"/>
    <circle id="Ellipse_320" data-name="Ellipse 320" cx="10" cy="10" r="10" transform="translate(160 2050)" fill="#373857"/>
    <circle id="Ellipse_321" data-name="Ellipse 321" cx="10" cy="10" r="10" transform="translate(190 2020)" fill="#373857"/>
    <circle id="Ellipse_322" data-name="Ellipse 322" cx="10" cy="10" r="10" transform="translate(220 2020)" fill="#373857"/>
    <circle id="Ellipse_323" data-name="Ellipse 323" cx="10" cy="10" r="10" transform="translate(190 2050)" fill="#373857"/>
    <circle id="Ellipse_324" data-name="Ellipse 324" cx="10" cy="10" r="10" transform="translate(220 2050)" fill="#373857"/>
    <circle id="Ellipse_325" data-name="Ellipse 325" cx="10" cy="10" r="10" transform="translate(10 2080)" fill="#373857"/>
    <circle id="Ellipse_326" data-name="Ellipse 326" cx="10" cy="10" r="10" transform="translate(40 2080)" fill="#373857"/>
    <circle id="Ellipse_327" data-name="Ellipse 327" cx="10" cy="10" r="10" transform="translate(10 2110)" fill="#373857"/>
    <circle id="Ellipse_328" data-name="Ellipse 328" cx="10" cy="10" r="10" transform="translate(40 2110)" fill="#373857"/>
    <circle id="Ellipse_329" data-name="Ellipse 329" cx="10" cy="10" r="10" transform="translate(70 2080)" fill="#373857"/>
    <circle id="Ellipse_330" data-name="Ellipse 330" cx="10" cy="10" r="10" transform="translate(100 2080)" fill="#373857"/>
    <circle id="Ellipse_331" data-name="Ellipse 331" cx="10" cy="10" r="10" transform="translate(70 2110)" fill="#373857"/>
    <circle id="Ellipse_332" data-name="Ellipse 332" cx="10" cy="10" r="10" transform="translate(100 2110)" fill="#373857"/>
    <circle id="Ellipse_333" data-name="Ellipse 333" cx="10" cy="10" r="10" transform="translate(10 2140)" fill="#373857"/>
    <circle id="Ellipse_334" data-name="Ellipse 334" cx="10" cy="10" r="10" transform="translate(40 2140)" fill="#373857"/>
    <circle id="Ellipse_335" data-name="Ellipse 335" cx="10" cy="10" r="10" transform="translate(10 2170)" fill="#373857"/>
    <circle id="Ellipse_336" data-name="Ellipse 336" cx="10" cy="10" r="10" transform="translate(40 2170)" fill="#373857"/>
    <circle id="Ellipse_337" data-name="Ellipse 337" cx="10" cy="10" r="10" transform="translate(70 2140)" fill="#373857"/>
    <circle id="Ellipse_338" data-name="Ellipse 338" cx="10" cy="10" r="10" transform="translate(100 2140)" fill="#373857"/>
    <circle id="Ellipse_339" data-name="Ellipse 339" cx="10" cy="10" r="10" transform="translate(70 2170)" fill="#373857"/>
    <circle id="Ellipse_340" data-name="Ellipse 340" cx="10" cy="10" r="10" transform="translate(100 2170)" fill="#373857"/>
    <circle id="Ellipse_341" data-name="Ellipse 341" cx="10" cy="10" r="10" transform="translate(130 2080)" fill="#373857"/>
    <circle id="Ellipse_342" data-name="Ellipse 342" cx="10" cy="10" r="10" transform="translate(160 2080)" fill="#373857"/>
    <circle id="Ellipse_343" data-name="Ellipse 343" cx="10" cy="10" r="10" transform="translate(130 2110)" fill="#373857"/>
    <circle id="Ellipse_344" data-name="Ellipse 344" cx="10" cy="10" r="10" transform="translate(160 2110)" fill="#373857"/>
    <circle id="Ellipse_345" data-name="Ellipse 345" cx="10" cy="10" r="10" transform="translate(190 2080)" fill="#373857"/>
    <circle id="Ellipse_346" data-name="Ellipse 346" cx="10" cy="10" r="10" transform="translate(220 2080)" fill="#373857"/>
    <circle id="Ellipse_347" data-name="Ellipse 347" cx="10" cy="10" r="10" transform="translate(190 2110)" fill="#373857"/>
    <circle id="Ellipse_348" data-name="Ellipse 348" cx="10" cy="10" r="10" transform="translate(220 2110)" fill="#373857"/>
    <circle id="Ellipse_349" data-name="Ellipse 349" cx="10" cy="10" r="10" transform="translate(130 2140)" fill="#373857"/>
    <circle id="Ellipse_350" data-name="Ellipse 350" cx="10" cy="10" r="10" transform="translate(160 2140)" fill="#373857"/>
    <circle id="Ellipse_351" data-name="Ellipse 351" cx="10" cy="10" r="10" transform="translate(130 2170)" fill="#373857"/>
    <circle id="Ellipse_352" data-name="Ellipse 352" cx="10" cy="10" r="10" transform="translate(160 2170)" fill="#373857"/>
    <circle id="Ellipse_353" data-name="Ellipse 353" cx="10" cy="10" r="10" transform="translate(190 2140)" fill="#373857"/>
    <circle id="Ellipse_354" data-name="Ellipse 354" cx="10" cy="10" r="10" transform="translate(220 2140)" fill="#373857"/>
    <circle id="Ellipse_355" data-name="Ellipse 355" cx="10" cy="10" r="10" transform="translate(190 2170)" fill="#373857"/>
    <circle id="Ellipse_356" data-name="Ellipse 356" cx="10" cy="10" r="10" transform="translate(220 2170)" fill="#373857"/>
    <circle id="Ellipse_357" data-name="Ellipse 357" cx="10" cy="10" r="10" transform="translate(10 1720)" fill="#373857"/>
    <circle id="Ellipse_358" data-name="Ellipse 358" cx="10" cy="10" r="10" transform="translate(40 1720)" fill="#373857"/>
    <circle id="Ellipse_359" data-name="Ellipse 359" cx="10" cy="10" r="10" transform="translate(10 1750)" fill="#373857"/>
    <circle id="Ellipse_360" data-name="Ellipse 360" cx="10" cy="10" r="10" transform="translate(40 1750)" fill="#373857"/>
    <circle id="Ellipse_361" data-name="Ellipse 361" cx="10" cy="10" r="10" transform="translate(70 1720)" fill="#373857"/>
    <circle id="Ellipse_362" data-name="Ellipse 362" cx="10" cy="10" r="10" transform="translate(100 1720)" fill="#373857"/>
    <circle id="Ellipse_363" data-name="Ellipse 363" cx="10" cy="10" r="10" transform="translate(70 1750)" fill="#373857"/>
    <circle id="Ellipse_364" data-name="Ellipse 364" cx="10" cy="10" r="10" transform="translate(100 1750)" fill="#373857"/>
    <circle id="Ellipse_365" data-name="Ellipse 365" cx="10" cy="10" r="10" transform="translate(10 1780)" fill="#373857"/>
    <circle id="Ellipse_366" data-name="Ellipse 366" cx="10" cy="10" r="10" transform="translate(40 1780)" fill="#373857"/>
    <circle id="Ellipse_367" data-name="Ellipse 367" cx="10" cy="10" r="10" transform="translate(10 1810)" fill="#373857"/>
    <circle id="Ellipse_368" data-name="Ellipse 368" cx="10" cy="10" r="10" transform="translate(40 1810)" fill="#373857"/>
    <circle id="Ellipse_369" data-name="Ellipse 369" cx="10" cy="10" r="10" transform="translate(70 1780)" fill="#373857"/>
    <circle id="Ellipse_370" data-name="Ellipse 370" cx="10" cy="10" r="10" transform="translate(100 1780)" fill="#373857"/>
    <circle id="Ellipse_371" data-name="Ellipse 371" cx="10" cy="10" r="10" transform="translate(70 1810)" fill="#373857"/>
    <circle id="Ellipse_372" data-name="Ellipse 372" cx="10" cy="10" r="10" transform="translate(100 1810)" fill="#373857"/>
    <circle id="Ellipse_373" data-name="Ellipse 373" cx="10" cy="10" r="10" transform="translate(130 1720)" fill="#373857"/>
    <circle id="Ellipse_374" data-name="Ellipse 374" cx="10" cy="10" r="10" transform="translate(160 1720)" fill="#373857"/>
    <circle id="Ellipse_375" data-name="Ellipse 375" cx="10" cy="10" r="10" transform="translate(130 1750)" fill="#373857"/>
    <circle id="Ellipse_376" data-name="Ellipse 376" cx="10" cy="10" r="10" transform="translate(160 1750)" fill="#373857"/>
    <circle id="Ellipse_377" data-name="Ellipse 377" cx="10" cy="10" r="10" transform="translate(190 1720)" fill="#373857"/>
    <circle id="Ellipse_378" data-name="Ellipse 378" cx="10" cy="10" r="10" transform="translate(220 1720)" fill="#373857"/>
    <circle id="Ellipse_379" data-name="Ellipse 379" cx="10" cy="10" r="10" transform="translate(190 1750)" fill="#373857"/>
    <circle id="Ellipse_380" data-name="Ellipse 380" cx="10" cy="10" r="10" transform="translate(220 1750)" fill="#373857"/>
    <circle id="Ellipse_381" data-name="Ellipse 381" cx="10" cy="10" r="10" transform="translate(130 1780)" fill="#373857"/>
    <circle id="Ellipse_382" data-name="Ellipse 382" cx="10" cy="10" r="10" transform="translate(160 1780)" fill="#373857"/>
    <circle id="Ellipse_383" data-name="Ellipse 383" cx="10" cy="10" r="10" transform="translate(130 1810)" fill="#373857"/>
    <circle id="Ellipse_384" data-name="Ellipse 384" cx="10" cy="10" r="10" transform="translate(160 1810)" fill="#373857"/>
    <circle id="Ellipse_385" data-name="Ellipse 385" cx="10" cy="10" r="10" transform="translate(190 1780)" fill="#373857"/>
    <circle id="Ellipse_386" data-name="Ellipse 386" cx="10" cy="10" r="10" transform="translate(220 1780)" fill="#373857"/>
    <circle id="Ellipse_387" data-name="Ellipse 387" cx="10" cy="10" r="10" transform="translate(190 1810)" fill="#373857"/>
    <circle id="Ellipse_388" data-name="Ellipse 388" cx="10" cy="10" r="10" transform="translate(220 1810)" fill="#373857"/>
    <circle id="Ellipse_389" data-name="Ellipse 389" cx="10" cy="10" r="10" transform="translate(10 1840)" fill="#373857"/>
    <circle id="Ellipse_390" data-name="Ellipse 390" cx="10" cy="10" r="10" transform="translate(40 1840)" fill="#373857"/>
    <circle id="Ellipse_391" data-name="Ellipse 391" cx="10" cy="10" r="10" transform="translate(10 1870)" fill="#373857"/>
    <circle id="Ellipse_392" data-name="Ellipse 392" cx="10" cy="10" r="10" transform="translate(40 1870)" fill="#373857"/>
    <circle id="Ellipse_393" data-name="Ellipse 393" cx="10" cy="10" r="10" transform="translate(70 1840)" fill="#373857"/>
    <circle id="Ellipse_394" data-name="Ellipse 394" cx="10" cy="10" r="10" transform="translate(100 1840)" fill="#373857"/>
    <circle id="Ellipse_395" data-name="Ellipse 395" cx="10" cy="10" r="10" transform="translate(70 1870)" fill="#373857"/>
    <circle id="Ellipse_396" data-name="Ellipse 396" cx="10" cy="10" r="10" transform="translate(100 1870)" fill="#373857"/>
    <circle id="Ellipse_397" data-name="Ellipse 397" cx="10" cy="10" r="10" transform="translate(10 1900)" fill="#373857"/>
    <circle id="Ellipse_398" data-name="Ellipse 398" cx="10" cy="10" r="10" transform="translate(40 1900)" fill="#373857"/>
    <circle id="Ellipse_399" data-name="Ellipse 399" cx="10" cy="10" r="10" transform="translate(10 1930)" fill="#373857"/>
    <circle id="Ellipse_400" data-name="Ellipse 400" cx="10" cy="10" r="10" transform="translate(40 1930)" fill="#373857"/>
    <circle id="Ellipse_401" data-name="Ellipse 401" cx="10" cy="10" r="10" transform="translate(70 1900)" fill="#373857"/>
    <circle id="Ellipse_402" data-name="Ellipse 402" cx="10" cy="10" r="10" transform="translate(100 1900)" fill="#373857"/>
    <circle id="Ellipse_403" data-name="Ellipse 403" cx="10" cy="10" r="10" transform="translate(70 1930)" fill="#373857"/>
    <circle id="Ellipse_404" data-name="Ellipse 404" cx="10" cy="10" r="10" transform="translate(100 1930)" fill="#373857"/>
    <circle id="Ellipse_405" data-name="Ellipse 405" cx="10" cy="10" r="10" transform="translate(130 1840)" fill="#373857"/>
    <circle id="Ellipse_406" data-name="Ellipse 406" cx="10" cy="10" r="10" transform="translate(160 1840)" fill="#373857"/>
    <circle id="Ellipse_407" data-name="Ellipse 407" cx="10" cy="10" r="10" transform="translate(130 1870)" fill="#373857"/>
    <circle id="Ellipse_408" data-name="Ellipse 408" cx="10" cy="10" r="10" transform="translate(160 1870)" fill="#373857"/>
    <circle id="Ellipse_409" data-name="Ellipse 409" cx="10" cy="10" r="10" transform="translate(190 1840)" fill="#373857"/>
    <circle id="Ellipse_410" data-name="Ellipse 410" cx="10" cy="10" r="10" transform="translate(220 1840)" fill="#373857"/>
    <circle id="Ellipse_411" data-name="Ellipse 411" cx="10" cy="10" r="10" transform="translate(190 1870)" fill="#373857"/>
    <circle id="Ellipse_412" data-name="Ellipse 412" cx="10" cy="10" r="10" transform="translate(220 1870)" fill="#373857"/>
    <circle id="Ellipse_413" data-name="Ellipse 413" cx="10" cy="10" r="10" transform="translate(130 1900)" fill="#373857"/>
    <circle id="Ellipse_414" data-name="Ellipse 414" cx="10" cy="10" r="10" transform="translate(160 1900)" fill="#373857"/>
    <circle id="Ellipse_415" data-name="Ellipse 415" cx="10" cy="10" r="10" transform="translate(130 1930)" fill="#373857"/>
    <circle id="Ellipse_416" data-name="Ellipse 416" cx="10" cy="10" r="10" transform="translate(160 1930)" fill="#373857"/>
    <circle id="Ellipse_417" data-name="Ellipse 417" cx="10" cy="10" r="10" transform="translate(190 1900)" fill="#373857"/>
    <circle id="Ellipse_418" data-name="Ellipse 418" cx="10" cy="10" r="10" transform="translate(220 1900)" fill="#373857"/>
    <circle id="Ellipse_419" data-name="Ellipse 419" cx="10" cy="10" r="10" transform="translate(190 1930)" fill="#373857"/>
    <circle id="Ellipse_420" data-name="Ellipse 420" cx="10" cy="10" r="10" transform="translate(220 1930)" fill="#373857"/>
    <circle id="Ellipse_455" data-name="Ellipse 455" cx="10" cy="10" r="10" transform="translate(10 1630)" fill="#373857"/>
    <circle id="Ellipse_456" data-name="Ellipse 456" cx="10" cy="10" r="10" transform="translate(40 1630)" fill="#373857"/>
    <circle id="Ellipse_459" data-name="Ellipse 459" cx="10" cy="10" r="10" transform="translate(70 1630)" fill="#373857"/>
    <circle id="Ellipse_460" data-name="Ellipse 460" cx="10" cy="10" r="10" transform="translate(100 1630)" fill="#373857"/>
    <circle id="Ellipse_461" data-name="Ellipse 461" cx="10" cy="10" r="10" transform="translate(10 1660)" fill="#373857"/>
    <circle id="Ellipse_462" data-name="Ellipse 462" cx="10" cy="10" r="10" transform="translate(40 1660)" fill="#373857"/>
    <circle id="Ellipse_463" data-name="Ellipse 463" cx="10" cy="10" r="10" transform="translate(10 1690)" fill="#373857"/>
    <circle id="Ellipse_464" data-name="Ellipse 464" cx="10" cy="10" r="10" transform="translate(40 1690)" fill="#373857"/>
    <circle id="Ellipse_465" data-name="Ellipse 465" cx="10" cy="10" r="10" transform="translate(70 1660)" fill="#373857"/>
    <circle id="Ellipse_466" data-name="Ellipse 466" cx="10" cy="10" r="10" transform="translate(100 1660)" fill="#373857"/>
    <circle id="Ellipse_467" data-name="Ellipse 467" cx="10" cy="10" r="10" transform="translate(70 1690)" fill="#373857"/>
    <circle id="Ellipse_468" data-name="Ellipse 468" cx="10" cy="10" r="10" transform="translate(100 1690)" fill="#373857"/>
    <circle id="Ellipse_471" data-name="Ellipse 471" cx="10" cy="10" r="10" transform="translate(130 1630)" fill="#373857"/>
    <circle id="Ellipse_472" data-name="Ellipse 472" cx="10" cy="10" r="10" transform="translate(160 1630)" fill="#373857"/>
    <circle id="Ellipse_475" data-name="Ellipse 475" cx="10" cy="10" r="10" transform="translate(190 1630)" fill="#373857"/>
    <circle id="Ellipse_476" data-name="Ellipse 476" cx="10" cy="10" r="10" transform="translate(220 1630)" fill="#373857"/>
    <circle id="Ellipse_477" data-name="Ellipse 477" cx="10" cy="10" r="10" transform="translate(130 1660)" fill="#373857"/>
    <circle id="Ellipse_478" data-name="Ellipse 478" cx="10" cy="10" r="10" transform="translate(160 1660)" fill="#373857"/>
    <circle id="Ellipse_479" data-name="Ellipse 479" cx="10" cy="10" r="10" transform="translate(130 1690)" fill="#373857"/>
    <circle id="Ellipse_480" data-name="Ellipse 480" cx="10" cy="10" r="10" transform="translate(160 1690)" fill="#373857"/>
    <circle id="Ellipse_481" data-name="Ellipse 481" cx="10" cy="10" r="10" transform="translate(190 1660)" fill="#373857"/>
    <circle id="Ellipse_482" data-name="Ellipse 482" cx="10" cy="10" r="10" transform="translate(220 1660)" fill="#373857"/>
    <circle id="Ellipse_483" data-name="Ellipse 483" cx="10" cy="10" r="10" transform="translate(190 1690)" fill="#373857"/>
    <circle id="Ellipse_484" data-name="Ellipse 484" cx="10" cy="10" r="10" transform="translate(220 1690)" fill="#373857"/>
    <circle id="Ellipse_485" data-name="Ellipse 485" cx="10" cy="10" r="10" transform="translate(10 1510)" fill="#373857"/>
    <circle id="Ellipse_486" data-name="Ellipse 486" cx="10" cy="10" r="10" transform="translate(40 1510)" fill="#373857"/>
    <circle id="Ellipse_487" data-name="Ellipse 487" cx="10" cy="10" r="10" transform="translate(10 1540)" fill="#373857"/>
    <circle id="Ellipse_488" data-name="Ellipse 488" cx="10" cy="10" r="10" transform="translate(40 1540)" fill="#373857"/>
    <circle id="Ellipse_489" data-name="Ellipse 489" cx="10" cy="10" r="10" transform="translate(70 1510)" fill="#373857"/>
    <circle id="Ellipse_490" data-name="Ellipse 490" cx="10" cy="10" r="10" transform="translate(100 1510)" fill="#373857"/>
    <circle id="Ellipse_491" data-name="Ellipse 491" cx="10" cy="10" r="10" transform="translate(70 1540)" fill="#373857"/>
    <circle id="Ellipse_492" data-name="Ellipse 492" cx="10" cy="10" r="10" transform="translate(100 1540)" fill="#373857"/>
    <circle id="Ellipse_493" data-name="Ellipse 493" cx="10" cy="10" r="10" transform="translate(10 1570)" fill="#373857"/>
    <circle id="Ellipse_494" data-name="Ellipse 494" cx="10" cy="10" r="10" transform="translate(40 1570)" fill="#373857"/>
    <circle id="Ellipse_495" data-name="Ellipse 495" cx="10" cy="10" r="10" transform="translate(10 1600)" fill="#373857"/>
    <circle id="Ellipse_496" data-name="Ellipse 496" cx="10" cy="10" r="10" transform="translate(40 1600)" fill="#373857"/>
    <circle id="Ellipse_497" data-name="Ellipse 497" cx="10" cy="10" r="10" transform="translate(70 1570)" fill="#373857"/>
    <circle id="Ellipse_498" data-name="Ellipse 498" cx="10" cy="10" r="10" transform="translate(100 1570)" fill="#373857"/>
    <circle id="Ellipse_499" data-name="Ellipse 499" cx="10" cy="10" r="10" transform="translate(70 1600)" fill="#373857"/>
    <circle id="Ellipse_500" data-name="Ellipse 500" cx="10" cy="10" r="10" transform="translate(100 1600)" fill="#373857"/>
    <circle id="Ellipse_501" data-name="Ellipse 501" cx="10" cy="10" r="10" transform="translate(130 1510)" fill="#373857"/>
    <circle id="Ellipse_502" data-name="Ellipse 502" cx="10" cy="10" r="10" transform="translate(160 1510)" fill="#373857"/>
    <circle id="Ellipse_503" data-name="Ellipse 503" cx="10" cy="10" r="10" transform="translate(130 1540)" fill="#373857"/>
    <circle id="Ellipse_504" data-name="Ellipse 504" cx="10" cy="10" r="10" transform="translate(160 1540)" fill="#373857"/>
    <circle id="Ellipse_505" data-name="Ellipse 505" cx="10" cy="10" r="10" transform="translate(190 1510)" fill="#373857"/>
    <circle id="Ellipse_506" data-name="Ellipse 506" cx="10" cy="10" r="10" transform="translate(220 1510)" fill="#373857"/>
    <circle id="Ellipse_507" data-name="Ellipse 507" cx="10" cy="10" r="10" transform="translate(190 1540)" fill="#373857"/>
    <circle id="Ellipse_508" data-name="Ellipse 508" cx="10" cy="10" r="10" transform="translate(220 1540)" fill="#373857"/>
    <circle id="Ellipse_509" data-name="Ellipse 509" cx="10" cy="10" r="10" transform="translate(130 1570)" fill="#373857"/>
    <circle id="Ellipse_510" data-name="Ellipse 510" cx="10" cy="10" r="10" transform="translate(160 1570)" fill="#373857"/>
    <circle id="Ellipse_511" data-name="Ellipse 511" cx="10" cy="10" r="10" transform="translate(130 1600)" fill="#373857"/>
    <circle id="Ellipse_512" data-name="Ellipse 512" cx="10" cy="10" r="10" transform="translate(160 1600)" fill="#373857"/>
    <circle id="Ellipse_513" data-name="Ellipse 513" cx="10" cy="10" r="10" transform="translate(190 1570)" fill="#373857"/>
    <circle id="Ellipse_514" data-name="Ellipse 514" cx="10" cy="10" r="10" transform="translate(220 1570)" fill="#373857"/>
    <circle id="Ellipse_515" data-name="Ellipse 515" cx="10" cy="10" r="10" transform="translate(190 1600)" fill="#373857"/>
    <circle id="Ellipse_516" data-name="Ellipse 516" cx="10" cy="10" r="10" transform="translate(220 1600)" fill="#373857"/>
    <circle id="Ellipse_517" data-name="Ellipse 517" cx="10" cy="10" r="10" transform="translate(10 1420)" fill="#373857"/>
    <circle id="Ellipse_518" data-name="Ellipse 518" cx="10" cy="10" r="10" transform="translate(40 1420)" fill="#373857"/>
    <circle id="Ellipse_519" data-name="Ellipse 519" cx="10" cy="10" r="10" transform="translate(70 1420)" fill="#373857"/>
    <circle id="Ellipse_520" data-name="Ellipse 520" cx="10" cy="10" r="10" transform="translate(100 1420)" fill="#373857"/>
    <circle id="Ellipse_521" data-name="Ellipse 521" cx="10" cy="10" r="10" transform="translate(10 1450)" fill="#373857"/>
    <circle id="Ellipse_522" data-name="Ellipse 522" cx="10" cy="10" r="10" transform="translate(40 1450)" fill="#373857"/>
    <circle id="Ellipse_523" data-name="Ellipse 523" cx="10" cy="10" r="10" transform="translate(10 1480)" fill="#373857"/>
    <circle id="Ellipse_524" data-name="Ellipse 524" cx="10" cy="10" r="10" transform="translate(40 1480)" fill="#373857"/>
    <circle id="Ellipse_525" data-name="Ellipse 525" cx="10" cy="10" r="10" transform="translate(70 1450)" fill="#373857"/>
    <circle id="Ellipse_526" data-name="Ellipse 526" cx="10" cy="10" r="10" transform="translate(100 1450)" fill="#373857"/>
    <circle id="Ellipse_527" data-name="Ellipse 527" cx="10" cy="10" r="10" transform="translate(70 1480)" fill="#373857"/>
    <circle id="Ellipse_528" data-name="Ellipse 528" cx="10" cy="10" r="10" transform="translate(100 1480)" fill="#373857"/>
    <circle id="Ellipse_529" data-name="Ellipse 529" cx="10" cy="10" r="10" transform="translate(130 1420)" fill="#373857"/>
    <circle id="Ellipse_530" data-name="Ellipse 530" cx="10" cy="10" r="10" transform="translate(160 1420)" fill="#373857"/>
    <circle id="Ellipse_531" data-name="Ellipse 531" cx="10" cy="10" r="10" transform="translate(190 1420)" fill="#373857"/>
    <circle id="Ellipse_532" data-name="Ellipse 532" cx="10" cy="10" r="10" transform="translate(220 1420)" fill="#373857"/>
    <circle id="Ellipse_533" data-name="Ellipse 533" cx="10" cy="10" r="10" transform="translate(130 1450)" fill="#373857"/>
    <circle id="Ellipse_534" data-name="Ellipse 534" cx="10" cy="10" r="10" transform="translate(160 1450)" fill="#373857"/>
    <circle id="Ellipse_535" data-name="Ellipse 535" cx="10" cy="10" r="10" transform="translate(130 1480)" fill="#373857"/>
    <circle id="Ellipse_536" data-name="Ellipse 536" cx="10" cy="10" r="10" transform="translate(160 1480)" fill="#373857"/>
    <circle id="Ellipse_537" data-name="Ellipse 537" cx="10" cy="10" r="10" transform="translate(190 1450)" fill="#373857"/>
    <circle id="Ellipse_538" data-name="Ellipse 538" cx="10" cy="10" r="10" transform="translate(220 1450)" fill="#373857"/>
    <circle id="Ellipse_539" data-name="Ellipse 539" cx="10" cy="10" r="10" transform="translate(190 1480)" fill="#373857"/>
    <circle id="Ellipse_540" data-name="Ellipse 540" cx="10" cy="10" r="10" transform="translate(220 1480)" fill="#373857"/>
  </g>
</svg>
