<svg xmlns="http://www.w3.org/2000/svg" width="44" height="44" viewBox="0 0 44 44">
  <path id="_5279111_network_fb_social_media_facebook_facebook_logo_icon" data-name="5279111_network_fb_social media_facebook_facebook logo_icon" d="M21.916,44h0Zm.155,0h0Zm-.222,0h0Zm.293,0h0Zm-.358,0h0Zm.429,0h0Zm.071,0h0ZM21.7,44h0Zm.653,0h0Zm-.722,0h0Zm.793,0h0Zm-.858,0h0Zm-.081,0h0Zm1.009,0h0Zm-1.08,0h0Zm1.151,0h0Zm.071,0h0Zm-1.286,0h0Zm-.062,0h0Zm1.419,0h0Zm.071,0h0Zm-1.579,0h0Zm-.064,0h0Zm1.714,0h0Zm-1.777,0h0Zm1.847,0h0Zm-1.936,0h0Zm2.006,0h0Zm-2.07,0,.034,0h-.034Zm2.14,0h-.016l.034,0Zm-2.2,0,.034,0h-.034Zm2.273,0h-.024l.034,0Zm.07,0-.031,0H23.2l.032,0Zm-2.4,0h.028l-.031,0-.029,0,.032,0Zm2.47,0h-.014l.035,0Zm-2.565,0,.035,0h-.035Zm-.062,0,.035,0h-.035Zm2.7,0H23.32l.035,0h-.013Zm-2.756,0,.031,0-.029,0-.029,0,.027,0Zm2.826,0-.029,0,.031,0,.027,0-.029,0Zm.07,0h-.01l.033,0-.023,0Zm-2.987,0,.033,0h-.01Zm-.062,0,.033,0h-.033Zm3.119,0h-.018l.033,0Zm-3.18-.006.03,0-.023,0Zm3.25,0-.023,0,.03,0h-.007Zm-3.333-.007.026,0h-.006Zm3.4,0h-.006l.026,0Zm.07-.005h-.013l.027,0Zm-3.537,0,.027,0h-.027Zm-.062-.005.023,0h-.023Zm3.669,0h-.016l.023,0Zm-3.738-.006h0Zm3.807,0h0Zm.07-.006h0Zm-3.95,0h0Zm-.064-.006h0Zm4.084,0h0Zm-5.477-.174a22,22,0,1,1,6.875,0V28.359h5.126L31.539,22h-6.1V17.873c0-1.74.852-3.436,3.585-3.436H31.8V9.023a33.831,33.831,0,0,0-4.925-.43c-5.025,0-8.31,3.046-8.31,8.559V22H12.977v6.359h5.586Z" fill="#4d9be6" fill-rule="evenodd"/>
</svg>
