<svg xmlns="http://www.w3.org/2000/svg" width="32" height="32" viewBox="0 0 32 32">
  <path id="_5279111_network_fb_social_media_facebook_facebook_logo_icon" data-name="5279111_network_fb_social media_facebook_facebook logo_icon" d="M15.939,32h0Zm.113,0h0Zm-.162,0h0Zm.213,0h0Zm-.261,0h0Zm.312,0h0Zm.052,0h0Zm-.424,0h0Zm.475,0h0Zm-.525,0h0Zm.577,0h0Zm-.624,0h0Zm-.059,0h0Zm.734,0h0Zm-.785,0h0Zm.837,0h0Zm.051,0h0Zm-.935,0h0Zm-.045,0h0Zm1.032,0h0Zm.051,0h0Zm-1.148,0h0Zm-.047,0h0Zm1.246,0h0Zm-1.292,0h0Zm1.343,0h0Zm-1.408,0h0Zm1.459,0h0Zm-1.505,0h0Zm1.556,0h0Zm-1.6,0h0Zm1.653,0h0Zm.051,0h0Zm-1.745,0h0Zm1.8,0h0Zm-1.865,0h0Zm-.045,0h0Zm1.961,0h0Zm-2,0h0Zm2.055,0h0Zm.051,0H17.07l.024,0h-.017Zm-2.172,0,.024,0h-.024Zm-.045,0,.024,0h-.024Zm2.268,0h-.013l.024,0Zm-2.313,0,.022,0h-.022Zm2.364,0h-.017l.022,0h0Zm-2.424,0h0Zm2.475,0h0Zm.051,0h-.009l.019,0Zm-2.572,0,.019,0h-.019Zm-.045,0h0Zm2.668,0h0Zm-2.718,0h0Zm2.769,0h0Zm.051,0h0Zm-2.873,0h0Zm-.047,0h0Zm2.97,0h0ZM13.5,31.805a16,16,0,1,1,5,0V20.625h3.728L22.937,16H18.5V13a2.312,2.312,0,0,1,2.607-2.5h2.018V6.562a24.6,24.6,0,0,0-3.582-.312c-3.655,0-6.043,2.215-6.043,6.225V16H9.437v4.625H13.5Z" fill="#2e222f" fill-rule="evenodd"/>
</svg>
