<svg xmlns="http://www.w3.org/2000/svg" width="44" height="44" viewBox="0 0 44 44">
  <path id="_5279112_camera_instagram_social_media_instagram_logo_icon" data-name="5279112_camera_instagram_social media_instagram logo_icon" d="M22,0A22,22,0,1,1,0,22,22.01,22.01,0,0,1,22,0Zm0,8.25c-3.734,0-4.2.016-5.669.083a10.094,10.094,0,0,0-3.338.639,7.031,7.031,0,0,0-4.021,4.021,10.1,10.1,0,0,0-.639,3.338C8.266,17.8,8.25,18.266,8.25,22s.016,4.2.083,5.669a10.1,10.1,0,0,0,.639,3.338,7.031,7.031,0,0,0,4.021,4.021,10.1,10.1,0,0,0,3.338.639c1.467.067,1.935.083,5.669.083s4.2-.016,5.669-.083a10.1,10.1,0,0,0,3.338-.639,7.031,7.031,0,0,0,4.021-4.021,10.1,10.1,0,0,0,.639-3.338c.067-1.467.083-1.935.083-5.669s-.016-4.2-.083-5.669a10.1,10.1,0,0,0-.639-3.338,7.031,7.031,0,0,0-4.021-4.021,10.092,10.092,0,0,0-3.338-.639C26.2,8.266,25.734,8.25,22,8.25Zm0,2.477c3.671,0,4.106.014,5.556.08a7.608,7.608,0,0,1,2.553.473,4.554,4.554,0,0,1,2.61,2.61,7.606,7.606,0,0,1,.473,2.553c.066,1.45.08,1.885.08,5.556s-.014,4.106-.08,5.556a7.606,7.606,0,0,1-.473,2.553,4.554,4.554,0,0,1-2.61,2.61,7.606,7.606,0,0,1-2.553.473c-1.45.066-1.885.08-5.556.08s-4.106-.014-5.556-.08a7.606,7.606,0,0,1-2.553-.473,4.553,4.553,0,0,1-2.61-2.61,7.608,7.608,0,0,1-.474-2.553c-.066-1.45-.08-1.885-.08-5.556s.014-4.106.08-5.556a7.608,7.608,0,0,1,.474-2.553,4.553,4.553,0,0,1,2.61-2.61,7.608,7.608,0,0,1,2.553-.473c1.45-.066,1.885-.08,5.556-.08Zm0,4.212A7.061,7.061,0,1,0,29.061,22,7.061,7.061,0,0,0,22,14.939Zm0,11.644A4.583,4.583,0,1,1,26.583,22,4.583,4.583,0,0,1,22,26.583ZM30.99,14.66a1.65,1.65,0,1,1-1.65-1.65A1.65,1.65,0,0,1,30.99,14.66Z" fill="#4d9be6" fill-rule="evenodd"/>
</svg>
