<svg xmlns="http://www.w3.org/2000/svg" width="32" height="32" viewBox="0 0 32 32">
  <path id="_5279114_linkedin_network_social_network_linkedin_logo_icon" data-name="5279114_linkedin_network_social network_linkedin logo_icon" d="M16,0A16,16,0,1,1,0,16,16.008,16.008,0,0,1,16,0ZM11,24.992V12.5H6.844v12.5Zm14.976,0V17.827c0-3.838-2.049-5.623-4.782-5.623a4.125,4.125,0,0,0-3.743,2.063V12.5H13.3c.055,1.172,0,12.5,0,12.5h4.153V18.014A2.839,2.839,0,0,1,17.586,17a2.273,2.273,0,0,1,2.131-1.519c1.5,0,2.1,1.146,2.1,2.825v6.685ZM8.949,6.472a2.165,2.165,0,1,0-.055,4.318h.027a2.166,2.166,0,1,0,.028-4.318Z" fill="#2e222f" fill-rule="evenodd"/>
</svg>
