<svg xmlns="http://www.w3.org/2000/svg" width="44" height="44" viewBox="0 0 44 44">
  <path id="_5279114_linkedin_network_social_network_linkedin_logo_icon" data-name="5279114_linkedin_network_social network_linkedin logo_icon" d="M22,0A22,22,0,1,1,0,22,22.01,22.01,0,0,1,22,0ZM15.122,34.364V17.183H9.41V34.364Zm20.592,0V24.512c0-5.277-2.818-7.732-6.575-7.732a5.672,5.672,0,0,0-5.147,2.837V17.183h-5.71c.076,1.612,0,17.181,0,17.181h5.71V24.769a3.9,3.9,0,0,1,.188-1.394,3.125,3.125,0,0,1,2.93-2.088c2.065,0,2.893,1.576,2.893,3.885v9.192ZM12.3,8.9a2.977,2.977,0,1,0-.076,5.937h.037A2.978,2.978,0,1,0,12.3,8.9Z" fill="#4d9be6" fill-rule="evenodd"/>
</svg>
