<svg xmlns="http://www.w3.org/2000/svg" viewBox="0 0 165.57 165.57"><defs><style>.cls-1,.cls-3{fill:#91db69;}.cls-1,.cls-2{isolation:isolate;}.cls-4{fill:#fff;}</style></defs><g id="Layer_2" data-name="Layer 2"><g id="Layer_1-2" data-name="Layer 1"><g id="Security"><circle id="circle" class="cls-1" cx="82.79" cy="82.79" r="82.79" transform="translate(-34.29 82.79) rotate(-45)"/><g id="shield" class="cls-2"><path class="cls-3" d="M84.85,138.93h0Zm-2.06-1.35a127,127,0,0,1-32.46-32.44C40.56,90.6,39.9,53.84,39.93,42.59l42.86-6.74,42.85,6.74c0,11.25-.63,48-10.4,62.55C103.56,122.55,88.27,133.85,82.79,137.58Z"/><path class="cls-4" d="M82.79,39.89,121.65,46c-.13,16.22-2,45.36-9.73,56.91a122.65,122.65,0,0,1-29.13,29.77,122.73,122.73,0,0,1-29.14-29.78C45.9,91.37,44.05,62.23,43.92,46l38.87-6.12m0-8.09L36,39.16s-1.36,49.76,11,68.21a128.31,128.31,0,0,0,35.78,35,128.2,128.2,0,0,0,35.77-35c12.4-18.45,11-68.21,11-68.21L82.79,31.8Z"/></g></g></g></g></svg>