<svg xmlns="http://www.w3.org/2000/svg" viewBox="0 0 165.57 165.57"><defs><style>.cls-1{fill:#8fd3ff;isolation:isolate;}.cls-2{fill:#4d9be6;}.cls-3{fill:#fff;}</style></defs><g id="Layer_2" data-name="Layer 2"><g id="Layer_1-2" data-name="Layer 1"><g id="Grow"><circle id="circle" class="cls-1" cx="82.79" cy="82.79" r="82.79" transform="translate(-34.29 82.79) rotate(-45)"/><g id="circle2"><circle class="cls-2" cx="82.79" cy="82.79" r="55.43" transform="translate(-16.81 21.24) rotate(-13.28)"/></g><g id="arrow"><polygon class="cls-2" points="48.53 106.92 35.48 119.97 19.56 104.07 35.44 88.18 48.53 75.1 70.47 97.03 100.03 67.47 90.68 67.47 90.68 44.97 138.44 44.97 138.44 92.01 115.93 92.01 115.93 83.38 70.45 128.86 48.53 106.92"/><path class="cls-3" d="M134.44,49V88H119.93V73.72L70.46,123.2,48.53,101.27l-13.05,13L25.22,104.07,38.27,91,48.53,80.76l21.94,21.93,39.22-39.23h-15V49h39.76m8-8H86.68V71.46h3.7L70.47,91.38,54.19,75.1l-5.66-5.65L42.88,75.1,32.62,85.35,19.56,98.42l-5.66,5.65,5.66,5.66L29.82,120l5.66,5.65L41.13,120l7.4-7.4L64.8,128.86l5.65,5.66,5.66-5.66L111.93,93v3h30.51V41Z"/></g></g></g></g></svg>