<svg xmlns="http://www.w3.org/2000/svg" viewBox="0 0 165.57 165.57"><defs><style>.cls-1{fill:#91db69;}.cls-2{fill:#fff;}</style></defs><g id="Layer_2" data-name="Layer 2"><g id="Layer_1-2" data-name="Layer 1"><g id="Simple"><g id="circle"><circle class="cls-1" cx="82.79" cy="82.79" r="82.79" transform="translate(-34.29 82.79) rotate(-45)"/></g><g id="person"><path class="cls-1" d="M44.59,131.76V108.88A38.13,38.13,0,0,1,62.35,76.65l3.79-2.42L63.3,70.75a25.11,25.11,0,1,1,39,0l-2.84,3.48,3.78,2.42A38.43,38.43,0,0,1,121,108.88v22.88Z"/><path class="cls-2" d="M82.79,33.81A21.11,21.11,0,0,1,99.18,68.22l-5.68,7L101.07,80a35,35,0,0,1,5.86,4.71,33.94,33.94,0,0,1,10,24.15v18.88H48.59V108.88A34.17,34.17,0,0,1,64.5,80l7.58-4.84-5.68-7A21.1,21.1,0,0,1,82.79,33.81m0-8A29.1,29.1,0,0,0,60.2,73.28a42.29,42.29,0,0,0-19.61,35.6v26.88H125V108.88a42,42,0,0,0-12.39-29.8,42.82,42.82,0,0,0-7.21-5.8A29.11,29.11,0,0,0,82.79,25.81Z"/></g></g></g></g></svg>