<svg xmlns="http://www.w3.org/2000/svg" viewBox="0 0 165.57 165.57"><defs><style>.cls-1{fill:#8fd3ff;isolation:isolate;}.cls-2{fill:#4d9be6;}.cls-3{fill:#fff;}.cls-4{fill:none;stroke:#fff;stroke-linecap:round;stroke-miterlimit:10;stroke-width:8px;}</style></defs><g id="Layer_2" data-name="Layer 2"><g id="Layer_1-2" data-name="Layer 1"><g id="Speed"><circle id="circle" class="cls-1" cx="82.79" cy="82.79" r="82.79" transform="translate(-34.29 82.79) rotate(-45)"/><g id="speedo"><path class="cls-2" d="M11.45,103.34S90.07,69,154,103.34c0,0-18.67,54.21-71.25,54.29C29.37,157.71,11.45,103.34,11.45,103.34Z"/></g><g id="tick"><path class="cls-2" d="M82.73,144.26A25.72,25.72,0,0,1,68.84,96.9L76,59.72a6.83,6.83,0,0,1,13.53,0L96.63,96.9a25.72,25.72,0,0,1-13.9,47.36Z"/><path class="cls-3" d="M82.74,57.59a3,3,0,0,1,3.07,2.73l7.46,38.94a22,22,0,1,1-21.07,0l7.46-38.93a3,3,0,0,1,3.08-2.73m0-7.48a10.45,10.45,0,0,0-10.46,9L65.46,94.68a29.46,29.46,0,1,0,34.55,0L93.19,59.1a10.45,10.45,0,0,0-10.45-9Z"/></g><g id="line1"><line class="cls-4" x1="82.79" y1="13.74" x2="82.79" y2="20.85"/></g><g id="line2"><line class="cls-4" x1="31.83" y1="36.35" x2="36.86" y2="41.38"/></g><g id="line3"><line class="cls-4" x1="131.15" y1="40.6" x2="136.18" y2="35.57"/></g></g></g></g></svg>