<svg xmlns="http://www.w3.org/2000/svg" viewBox="0 0 165.57 165.57"><defs><style>.cls-1{fill:#8fd3ff;isolation:isolate;}.cls-2{fill:#4d9be6;}.cls-3{fill:#fff;}</style></defs><g id="Layer_2" data-name="Layer 2"><g id="Layer_1-2" data-name="Layer 1"><g id="Simple"><circle id="circle" class="cls-1" cx="82.79" cy="82.79" r="82.79" transform="translate(-34.29 82.79) rotate(-45)"/><g id="person"><path class="cls-2" d="M50.52,124.16v-19A32.23,32.23,0,0,1,65.53,78l4.17-2.66-3.13-3.83a20.9,20.9,0,1,1,32.43,0l-3.13,3.83L100.05,78a32.81,32.81,0,0,1,5.52,4.45,32,32,0,0,1,9.48,22.78v19Z"/><path class="cls-3" d="M82.79,41.82A16.5,16.5,0,0,1,99.27,58.31a16.22,16.22,0,0,1-3.68,10.38l-6.26,7.67,8.34,5.33a28.51,28.51,0,0,1,4.79,3.84,27.66,27.66,0,0,1,8.18,19.67v14.55H54.93V105.2a27.83,27.83,0,0,1,13-23.51l8.34-5.33L70,68.69A16.22,16.22,0,0,1,66.3,58.31,16.51,16.51,0,0,1,82.79,41.82m0-8.81A25.29,25.29,0,0,0,63.16,74.26a36.75,36.75,0,0,0-17,30.94v23.36h73.34V105.2a36.54,36.54,0,0,0-10.77-25.9,37.14,37.14,0,0,0-6.27-5A25.29,25.29,0,0,0,82.79,33Z"/></g></g></g></g></svg>