<svg xmlns="http://www.w3.org/2000/svg" viewBox="0 0 165.57 165.57"><defs><style>.cls-1{fill:#91db69;}.cls-2{fill:#fff;}</style></defs><g id="Layer_2" data-name="Layer 2"><g id="Layer_1-2" data-name="Layer 1"><g id="Grow"><g id="circle"><circle class="cls-1" cx="82.79" cy="82.79" r="82.79" transform="translate(-34.29 82.79) rotate(-45)"/></g><g id="arrow"><polygon class="cls-1" points="46.37 107.97 32.41 121.93 15.78 105.31 32.57 88.52 46.37 74.73 69.82 98.18 102.1 65.9 91.71 65.9 91.71 42.4 142.22 42.4 142.22 92.14 118.7 92.14 118.7 82.53 69.81 131.42 46.37 107.97"/><path class="cls-2" d="M138.21,46.4V88.14h-15.5V72.87l-52.9,52.9L46.37,102.32l-14,14-11-11,14-14,11-11,23.45,23.45L111.76,61.9H95.71V46.4h42.5m8-8H87.71V69.9h4.73L69.82,92.53,52,74.73l-5.65-5.65-5.66,5.65-11,11-14,14-5.65,5.66L15.79,111l11,11,5.65,5.65,5.66-5.65,8.3-8.3,17.78,17.79,5.66,5.66,5.65-5.66,39.25-39.24v4h31.5V38.4Z"/></g></g></g></g></svg>