<svg xmlns="http://www.w3.org/2000/svg" viewBox="0 0 209.12 190.94"><defs><style>.cls-1{fill:#8fd3ff;isolation:isolate;}.cls-2{fill:#4d9be6;}.cls-3{fill:#fff;}.cls-4{fill:#f9c22b;}</style></defs><g id="Layer_2" data-name="Layer 2"><g id="Layer_1-2" data-name="Layer 1"><g id="Security"><circle id="circle" class="cls-1" cx="93.37" cy="100" r="82.79" transform="translate(-43.37 95.31) rotate(-45)"/><g id="shield"><path class="cls-2" d="M93.37,161.57c-2.28-.21-20.49-2.65-34.56-28.18-10.89-19.77-11.36-70-11.29-83.27l45.85-8.8,45.85,8.8c.07,13.23-.4,63.51-11.29,83.27C113.88,158.92,95.66,161.36,93.37,161.57Z"/><path class="cls-3" d="M93.37,45.39l41.88,8c0,20.87-1.91,61.85-10.82,78C112,154,96.35,157.14,93.37,157.54c-3-.4-18.62-3.51-31.05-26.08-8.92-16.18-10.8-57.16-10.82-78l41.87-8m0-8.15L43.56,46.81s-1.44,64.56,11.75,88.51c16.11,29.24,38.06,30.26,38.06,30.26s22-1,38.07-30.26c13.19-23.95,11.74-88.51,11.74-88.51L93.37,37.24Z"/></g><g id="star1"><polygon class="cls-4" points="133.85 152.2 112.34 131.24 142.07 126.92 155.36 99.98 168.65 126.92 198.38 131.24 176.87 152.2 181.94 181.8 155.36 167.83 128.77 181.8 133.85 152.2"/><path class="cls-3" d="M155.36,111.28,163,126.77l2.33,4.72,5.2.75,17.1,2.49-12.37,12.05-3.77,3.67.89,5.19,2.92,17-15.29-8-4.65-2.44-4.65,2.44-15.3,8,2.92-17,.89-5.19-3.76-3.67-12.37-12.05,17.09-2.49,5.21-.75,2.32-4.72,7.65-15.49m0-22.6-16.61,33.67-37.15,5.39L128.48,154l-6.35,37,33.23-17.46,30.77,16.17c.65-.49,1.32-1,2-1.44L182.24,154l26.88-26.21L172,122.35,155.36,88.68Z"/></g><g id="star2"><polygon class="cls-4" points="22.5 42.8 8.6 29.24 27.81 26.45 36.4 9.04 45 26.45 64.21 29.24 50.31 42.8 53.59 61.93 36.4 52.9 19.22 61.93 22.5 42.8"/><path class="cls-3" d="M36.4,18.08l4.08,8.25,1.86,3.78,4.16.6L55.62,32,49,38.46,46,41.4l.71,4.14,1.56,9.08-8.15-4.28-3.73-2-3.72,2-8.15,4.28,1.56-9.08.71-4.14-3-2.94L17.19,32l9.12-1.33,4.16-.6,1.86-3.78,4.07-8.25M36.4,0,25.15,22.79,0,26.45,18.2,44.19l-4.29,25L36.4,57.42,58.9,69.24l-4.29-25,18.2-17.74L47.65,22.79,36.4,0Z"/></g></g></g></g></svg>