<svg xmlns="http://www.w3.org/2000/svg" viewBox="0 0 500 500"><defs><style>.cls-1{fill:#e8ebe9;}.cls-2{fill:#fff;}.cls-3{fill:#f4f4f4;}</style></defs><g id="Layer_2" data-name="Layer 2"><g id="Layer_1-2" data-name="Layer 1"><circle class="cls-1" cx="250" cy="250" r="250"/><path class="cls-2" d="M127.77,398.45V378.66c0-7.59-4.61-12.54-12.53-12.54A13,13,0,0,0,104,371.73c-2.31-3.63-5.61-5.61-10.56-5.61a10.65,10.65,0,0,0-9.23,4.62v-4H77.3v31.67h6.93V381c0-5.61,3-8.25,7.59-8.25s6.92,3,6.92,8.25v17.48h6.93V381c0-5.61,3.3-8.25,7.59-8.25,4.62,0,6.93,3,6.93,8.25v17.48Zm102.6-31.67H219.15v-9.56h-6.92v9.56H206v6.27h6.27v14.52c0,7.25,3,11.54,10.88,11.54a18.46,18.46,0,0,0,8.58-2.31l-2-5.93a10.93,10.93,0,0,1-5.94,1.64c-3.3,0-4.62-2-4.62-5.27V373.05h11.22v-6.27Zm58.72-.66a9.27,9.27,0,0,0-8.24,4.62v-4h-6.93v31.67h6.93V380.64c0-5.28,2.3-8.25,6.59-8.25a19.31,19.31,0,0,1,4.29.66l2-6.6a21.79,21.79,0,0,0-4.62-.33Zm-88.74,3.3c-3.3-2.31-7.92-3.3-12.87-3.3-7.91,0-13.19,4-13.19,10.23,0,5.28,4,8.25,10.89,9.24l3.29.33c3.63.66,5.61,1.65,5.61,3.3,0,2.31-2.64,3.95-7.25,3.95a18.22,18.22,0,0,1-10.56-3.29l-3.3,5.27a23.34,23.34,0,0,0,13.53,4c9.23,0,14.51-4.29,14.51-10.22,0-5.61-4.29-8.58-10.89-9.57l-3.29-.33c-3-.33-5.28-1-5.28-3,0-2.31,2.31-3.63,5.93-3.63a23.79,23.79,0,0,1,9.9,2.64l3-5.61Zm184.08-3.3a9.3,9.3,0,0,0-8.25,4.62v-4h-6.92v31.67h6.92V380.64c0-5.28,2.31-8.25,6.6-8.25a19.31,19.31,0,0,1,4.29.66l2-6.6a21.79,21.79,0,0,0-4.62-.33ZM296,382.62c0,9.56,6.6,16.49,16.83,16.49,4.61,0,7.91-1,11.21-3.63l-3.3-5.6a13.38,13.38,0,0,1-8.24,3c-5.61,0-9.57-3.95-9.57-10.22,0-5.94,4-9.9,9.57-10.23a13.33,13.33,0,0,1,8.24,3l3.3-5.61c-3.3-2.64-6.6-3.63-11.21-3.63-10.23,0-16.83,6.93-16.83,16.5Zm64,0V366.78h-6.93v4a11.92,11.92,0,0,0-9.89-4.62c-8.91,0-15.84,6.93-15.84,16.5s6.93,16.49,15.84,16.49c4.61,0,7.91-1.65,9.89-4.62v4H360Zm-25.4,0c0-5.61,3.63-10.23,9.57-10.23,5.6,0,9.56,4.29,9.56,10.23,0,5.61-4,10.22-9.56,10.22-5.94-.33-9.57-4.61-9.57-10.22Zm-82.81-16.5c-9.23,0-15.83,6.6-15.83,16.5s6.6,16.49,16.16,16.49A20.18,20.18,0,0,0,265,394.82l-3.3-4.94a15.83,15.83,0,0,1-9.24,3.29c-4.28,0-8.57-2-9.56-7.58h23.42V383c.33-10.23-5.61-16.83-14.52-16.83Zm0,5.94c4.29,0,7.26,2.64,7.92,7.59H243.24c.66-4.29,3.63-7.59,8.57-7.59Zm171.88,10.56V354.25h-6.93v16.49a11.92,11.92,0,0,0-9.89-4.62c-8.91,0-15.84,6.93-15.84,16.5s6.93,16.49,15.84,16.49c4.61,0,7.91-1.65,9.89-4.62v4h6.93Zm-25.4,0c0-5.61,3.63-10.23,9.56-10.23,5.61,0,9.57,4.29,9.57,10.23,0,5.61-4,10.22-9.57,10.22-5.93-.33-9.56-4.61-9.56-10.22Zm-231.59,0V366.78h-6.93v4a11.9,11.9,0,0,0-9.89-4.62c-8.91,0-15.84,6.93-15.84,16.5s6.93,16.49,15.84,16.49c4.62,0,7.91-1.65,9.89-4.62v4h6.93Zm-25.73,0c0-5.61,3.63-10.23,9.57-10.23,5.6,0,9.56,4.29,9.56,10.23,0,5.61-4,10.22-9.56,10.22C144.6,392.51,141,388.23,141,382.62Z"/><rect class="cls-2" x="198.04" y="126.29" width="103.92" height="186.72"/><path class="cls-2" d="M204.64,219.65a119,119,0,0,1,45.2-93.36,118.76,118.76,0,1,0,0,186.72A118.55,118.55,0,0,1,204.64,219.65Z"/><path class="cls-3" d="M442.16,219.65a118.64,118.64,0,0,1-192,93.36,119,119,0,0,0,0-186.72,118,118,0,0,1,73.24-25.4C389.05,100.89,442.16,154.33,442.16,219.65Z"/></g></g></svg>