<svg xmlns="http://www.w3.org/2000/svg" width="176.934" height="137.263" viewBox="0 0 176.934 137.263">
  <g id="MasterCard" transform="translate(-26.546 -46.426)">
    <g id="Layer_1" data-name="Layer 1">
      <path id="Path_57" data-name="Path 57" d="M100.526,374.591v-9.107c0-3.493-2.121-5.771-5.766-5.771a5.982,5.982,0,0,0-5.173,2.582,5.312,5.312,0,0,0-4.86-2.582,4.9,4.9,0,0,0-4.248,2.126V360H77.3v14.574h3.189V366.56c0-2.582,1.381-3.8,3.493-3.8s3.185,1.381,3.185,3.8V374.6h3.189V366.56c0-2.582,1.519-3.8,3.493-3.8,2.126,0,3.189,1.381,3.189,3.8V374.6Zm47.216-14.574h-5.163v-4.4h-3.185v4.4h-2.867V362.9h2.885v6.682c0,3.336,1.381,5.311,5.007,5.311a8.5,8.5,0,0,0,3.948-1.063l-.92-2.729a5.03,5.03,0,0,1-2.734.755c-1.519,0-2.126-.92-2.126-2.425V362.9h5.163v-2.885Zm27.023-.3a4.266,4.266,0,0,0-3.792,2.126V360h-3.189v14.574h3.189v-8.178c0-2.43,1.058-3.8,3.033-3.8a8.885,8.885,0,0,1,1.974.3l.92-3.037a10.03,10.03,0,0,0-2.126-.152Zm-40.838,1.519A10.424,10.424,0,0,0,128,359.713c-3.64,0-6.07,1.841-6.07,4.708,0,2.43,1.841,3.8,5.012,4.252l1.514.152c1.671.3,2.582.759,2.582,1.519,0,1.063-1.215,1.818-3.336,1.818a8.384,8.384,0,0,1-4.86-1.514l-1.519,2.425a10.741,10.741,0,0,0,6.226,1.841c4.248,0,6.677-1.974,6.677-4.7,0-2.582-1.974-3.948-5.012-4.4l-1.514-.152c-1.381-.152-2.43-.46-2.43-1.381,0-1.063,1.063-1.671,2.729-1.671a10.948,10.948,0,0,1,4.556,1.215l1.381-2.582Zm84.713-1.519a4.28,4.28,0,0,0-3.8,2.126V360h-3.185v14.574h3.185v-8.178c0-2.43,1.063-3.8,3.037-3.8a8.885,8.885,0,0,1,1.974.3l.92-3.037a10.03,10.03,0,0,0-2.126-.152Zm-40.7,7.593c0,4.4,3.037,7.589,7.745,7.589a7.575,7.575,0,0,0,5.159-1.671l-1.519-2.577a6.157,6.157,0,0,1-3.792,1.381c-2.582,0-4.4-1.818-4.4-4.7a4.491,4.491,0,0,1,4.4-4.708A6.134,6.134,0,0,1,189.33,364l1.519-2.582a7.552,7.552,0,0,0-5.159-1.671c-4.708,0-7.745,3.189-7.745,7.593Zm29.452,0v-7.289h-3.189v1.841a5.486,5.486,0,0,0-4.551-2.126,7.6,7.6,0,0,0,0,15.182,5.108,5.108,0,0,0,4.551-2.126v1.841H207.4Zm-11.689,0a4.412,4.412,0,1,1,8.8,0,4.411,4.411,0,1,1-8.8,0ZM157.6,359.713c-4.248,0-7.285,3.037-7.285,7.593s3.037,7.589,7.437,7.589a9.287,9.287,0,0,0,5.927-1.974l-1.519-2.273a7.285,7.285,0,0,1-4.252,1.514,4.1,4.1,0,0,1-4.4-3.488h10.778v-1.192c.152-4.708-2.582-7.745-6.682-7.745Zm0,2.734c1.974,0,3.341,1.215,3.645,3.493h-7.579a3.844,3.844,0,0,1,3.944-3.493Zm79.1,4.86V354.25h-3.189v7.589a5.485,5.485,0,0,0-4.551-2.126,7.6,7.6,0,0,0,0,15.182,5.108,5.108,0,0,0,4.551-2.126v1.841H236.7Zm-11.689,0a4.412,4.412,0,1,1,8.8,0,4.411,4.411,0,1,1-8.8,0Zm-106.577,0v-7.289h-3.189v1.841a5.476,5.476,0,0,0-4.551-2.126,7.6,7.6,0,0,0,0,15.182,5.1,5.1,0,0,0,4.551-2.126v1.841h3.189Zm-11.841,0a4.412,4.412,0,1,1,8.8,0,4.4,4.4,0,1,1-8.781,0Z" transform="translate(-41.727 -191.226)" fill="#e1f2ee"/>
      <rect id="Rectangle_38" data-name="Rectangle 38" width="47.823" height="85.928" transform="translate(91.137 58.118)" fill="#e1f2ee"/>
      <path id="Path_58" data-name="Path 58" d="M125.313,155.539a54.765,54.765,0,0,1,20.8-42.966,54.653,54.653,0,1,0,0,85.93A54.556,54.556,0,0,1,125.313,155.539Z" transform="translate(-31.138 -54.457)" fill="#e1f2ee"/>
      <path id="Path_59" data-name="Path 59" d="M338.517,155.543a54.6,54.6,0,0,1-88.357,42.964,54.763,54.763,0,0,0,0-85.928,54.6,54.6,0,0,1,88.357,42.964Z" transform="translate(-135.038 -54.461)" fill="#f2fcfa"/>
    </g>
  </g>
</svg>
