<svg xmlns="http://www.w3.org/2000/svg" width="165.146" height="155.037" viewBox="0 0 165.146 155.037">
  <g id="Monzo" transform="translate(-33.999 -27.845)">
    <g id="Layer_1" data-name="Layer 1">
      <g id="g854" transform="translate(33.999 27.845)">
        <path id="path4" d="M353.387,168.984a5.863,5.863,0,0,1-1.717,4.142l-26.231,26.231a2.342,2.342,0,0,1-4-1.657V138.9l31.606-31.431h.364Z" transform="translate(-207.514 -85.858)" fill="#e1f2ee"/>
        <path id="path6" d="M295.026,61.195a2.342,2.342,0,0,0-3.313,0l-39.029,39.029h-.543V144.26l.543,1.155L284,114.09l31.97-31.97Z" transform="translate(-170.106 -60.508)" fill="#e1f2ee"/>
        <path id="path8" d="M115.738,168.984a5.863,5.863,0,0,0,1.717,4.142l26.231,26.231a2.342,2.342,0,0,0,4-1.657V138.9l-31.6-31.431h-.364Z" transform="translate(-96.465 -85.858)" fill="#e1f2ee"/>
        <path id="path10" d="M140.026,61.194a2.347,2.347,0,0,0-3.318,0L115.76,82.142l31.97,31.97,31.33,31.3v-45.2Z" transform="translate(-96.487 -60.507)" fill="#e1f2ee"/>
        <path id="path12" d="M73.88,362.95V335.44h7.326v3.682a8.129,8.129,0,0,1,7.478-4.2,8.366,8.366,0,0,1,7.635,4.409c2.872-3.023,5.062-4.409,8.509-4.409,6.2,0,9.664,3.484,9.664,9.89v18.136h-7.883v-14.91c0-3.843-.819-5.582-3.843-5.582s-4.712,1.9-4.712,5.582v14.91H90.12v-14.91c0-3.843-.819-5.582-3.843-5.582s-4.712,1.9-4.712,5.582v14.91Z" transform="translate(-73.88 -208.637)" fill="#e1f2ee"/>
        <path id="path14" d="M178.412,338.781a14.524,14.524,0,0,1,24.851,9.991,14.045,14.045,0,0,1-4.142,10.35,14.266,14.266,0,0,1-10.451,4.3,13.587,13.587,0,0,1-10.4-4.4,14.386,14.386,0,0,1-4.05-10.147,14.091,14.091,0,0,1,4.192-10.092Zm10.3,16.958a6.794,6.794,0,1,0-6.507-6.765,6.639,6.639,0,0,0,6.507,6.765Z" transform="translate(-128.043 -208.392)" fill="#e1f2ee"/>
        <path id="path16" d="M249.37,362.95V335.44h7.685l-.106,3.682a8.575,8.575,0,0,1,7.892-4.2c5.688,0,9.379,3.59,9.379,9.89v18.136h-8.1v-14.91c0-3.843-.819-5.582-3.944-5.582s-4.869,1.9-4.869,5.582v14.91Z" transform="translate(-168.61 -208.637)" fill="#e1f2ee"/>
        <path id="path18" d="M373.805,338.781a14.524,14.524,0,0,1,24.851,9.991,14.045,14.045,0,0,1-4.142,10.35,14.266,14.266,0,0,1-10.465,4.3,13.6,13.6,0,0,1-10.405-4.4,14.4,14.4,0,0,1-4.045-10.147,14.091,14.091,0,0,1,4.206-10.092Zm10.3,16.958a14.118,14.118,0,1,1,.009,0Z" transform="translate(-233.51 -208.392)" fill="#e1f2ee"/>
        <path id="path20" d="M316.59,363.56v-5.739l11.325-14.653H316.59V336.05h20.437v6.5l-9.991,13.889H337.23v7.119Z" transform="translate(-204.896 -209.247)" fill="#e1f2ee"/>
      </g>
    </g>
  </g>
</svg>
