<svg xmlns="http://www.w3.org/2000/svg" viewBox="0 0 500 500"><defs><style>.cls-1{fill:#e8ebe9;}.cls-2{fill:#fff;}</style></defs><g id="Layer_2" data-name="Layer 2"><g id="Layer_1-2" data-name="Layer 1"><circle class="cls-1" cx="250" cy="250" r="250"/><g id="g854"><path id="path4" class="cls-2" d="M390.86,241.14a12.74,12.74,0,0,1-3.73,9l-57,57a5.09,5.09,0,0,1-8.69-3.6V175.77l68.68-68.3h.79Z"/><path id="path6" class="cls-2" d="M345.33,62a5.09,5.09,0,0,0-7.2,0l-84.81,84.81h-1.18V242.5l1.18,2.51,68.06-68.07,69.47-69.47Z"/><path id="path8" class="cls-2" d="M115.76,241.14a12.74,12.74,0,0,0,3.73,9l57,57a5.09,5.09,0,0,0,8.69-3.6V175.77l-68.67-68.3h-.79Z"/><path id="path10" class="cls-2" d="M168.49,62a5.1,5.1,0,0,0-7.21,0l-45.52,45.52,69.47,69.47L253.31,245V146.77Z"/><path id="path12" class="cls-2" d="M73.88,395.83V336.05H89.8v8c3.67-6.12,9-9.13,16.25-9.13s12.7,3.12,16.59,9.58c6.24-6.57,11-9.58,18.49-9.58,13.47,0,21,7.57,21,21.49v39.41H145v-32.4c0-8.35-1.78-12.13-8.35-12.13s-10.24,4.12-10.24,12.13v32.4H109.17v-32.4c0-8.35-1.78-12.13-8.35-12.13s-10.24,4.12-10.24,12.13v32.4Z"/><path id="path14" class="cls-2" d="M183.33,343.84a31.56,31.56,0,0,1,54,21.71c0,9-3,16.48-9,22.49a31,31,0,0,1-22.71,9.35c-9.13,0-16.48-3.11-22.6-9.57a31.26,31.26,0,0,1-8.8-22.05A30.62,30.62,0,0,1,183.33,343.84Zm22.38,36.85c7.8,0,14.14-6.57,14.14-14.7s-6.34-14.8-14.14-14.8-14.14,6.57-14.14,14.8,6.46,14.7,14.15,14.7Z"/><path id="path16" class="cls-2" d="M249.37,395.83V336.05h16.7l-.23,8c3.68-6,9.25-9.13,17.15-9.13,12.36,0,20.38,7.8,20.38,21.49v39.41h-17.6v-32.4c0-8.35-1.78-12.13-8.57-12.13s-10.58,4.12-10.58,12.13v32.4Z"/><path id="path18" class="cls-2" d="M378.74,343.84a31.56,31.56,0,0,1,54,21.71c0,9-3,16.48-9,22.49A31,31,0,0,1,401,397.39a29.56,29.56,0,0,1-22.61-9.57,31.3,31.3,0,0,1-8.79-22.05A30.62,30.62,0,0,1,378.74,343.84Zm22.38,36.85c7.79,0,14.14-6.57,14.14-14.7s-6.35-14.8-14.14-14.8S387,357.76,387,366s6.46,14.7,14.14,14.7Z"/><path id="path20" class="cls-2" d="M316.59,395.83V383.36l24.61-31.84H316.59V336.05H361v14.13l-21.71,30.18h22.15v15.47Z"/></g></g></g></svg>