<svg xmlns="http://www.w3.org/2000/svg" viewBox="0 0 274 474.67"><defs><style>.cls-1,.cls-2{fill:none;}.cls-2{stroke:#e4eae6;stroke-linecap:round;stroke-miterlimit:10;stroke-width:1.91px;}.cls-3{fill:#e4eae6;isolation:isolate;}</style></defs><g id="Layer_2" data-name="Layer 2"><g id="Layer_1-2" data-name="Layer 1"><rect class="cls-1" width="274" height="474.67" rx="30.67"/><line class="cls-2" x1="205" y1="45" x2="223.11" y2="45"/><line class="cls-2" x1="205" y1="50.83" x2="223.11" y2="50.83"/><line class="cls-2" x1="205" y1="56.67" x2="223.11" y2="56.67"/><circle class="cls-3" cx="55.33" cy="50.83" r="7.69"/><rect class="cls-3" x="72.67" y="364.35" width="128.67" height="35.33" rx="4.66"/><rect class="cls-3" x="55.33" y="204.33" width="119.56" height="15.85" rx="3.72"/><rect class="cls-3" x="55.33" y="223.97" width="37.56" height="9.81" rx="3.13"/><rect class="cls-3" x="96.33" y="223.97" width="27.44" height="9.81" rx="3.13"/><rect class="cls-3" x="127.89" y="223.97" width="14.78" height="9.81" rx="3.13"/><rect class="cls-3" x="55.33" y="249.52" width="119.56" height="15.85" rx="3.72"/><rect class="cls-3" x="55.33" y="269.15" width="37.56" height="9.81" rx="3.13"/><rect class="cls-3" x="96.33" y="269.15" width="27.44" height="9.81" rx="3.13"/><rect class="cls-3" x="127.89" y="269.15" width="39.22" height="9.81" rx="3.13"/><rect class="cls-3" x="55.33" y="294.71" width="119.56" height="15.85" rx="3.72"/><rect class="cls-3" x="55.33" y="314.34" width="37.56" height="9.81" rx="3.13"/><rect class="cls-3" x="96.33" y="314.34" width="53.89" height="9.81" rx="3.13"/></g></g></svg>