<svg xmlns="http://www.w3.org/2000/svg" width="230" height="230" viewBox="0 0 230 230">
  <g id="Group_25" data-name="Group 25" transform="translate(-10 -2200)">
    <circle id="Ellipse_37" data-name="Ellipse 37" cx="10" cy="10" r="10" transform="translate(10 2200)" fill="#ecf1ee"/>
    <circle id="Ellipse_38" data-name="Ellipse 38" cx="10" cy="10" r="10" transform="translate(40 2200)" fill="#ecf1ee"/>
    <circle id="Ellipse_39" data-name="Ellipse 39" cx="10" cy="10" r="10" transform="translate(10 2230)" fill="#ecf1ee"/>
    <circle id="Ellipse_40" data-name="Ellipse 40" cx="10" cy="10" r="10" transform="translate(40 2230)" fill="#ecf1ee"/>
    <circle id="Ellipse_41" data-name="Ellipse 41" cx="10" cy="10" r="10" transform="translate(70 2200)" fill="#ecf1ee"/>
    <circle id="Ellipse_42" data-name="Ellipse 42" cx="10" cy="10" r="10" transform="translate(100 2200)" fill="#ecf1ee"/>
    <circle id="Ellipse_43" data-name="Ellipse 43" cx="10" cy="10" r="10" transform="translate(70 2230)" fill="#ecf1ee"/>
    <circle id="Ellipse_44" data-name="Ellipse 44" cx="10" cy="10" r="10" transform="translate(100 2230)" fill="#ecf1ee"/>
    <circle id="Ellipse_45" data-name="Ellipse 45" cx="10" cy="10" r="10" transform="translate(10 2260)" fill="#ecf1ee"/>
    <circle id="Ellipse_46" data-name="Ellipse 46" cx="10" cy="10" r="10" transform="translate(40 2260)" fill="#ecf1ee"/>
    <circle id="Ellipse_47" data-name="Ellipse 47" cx="10" cy="10" r="10" transform="translate(10 2290)" fill="#ecf1ee"/>
    <circle id="Ellipse_48" data-name="Ellipse 48" cx="10" cy="10" r="10" transform="translate(40 2290)" fill="#ecf1ee"/>
    <circle id="Ellipse_49" data-name="Ellipse 49" cx="10" cy="10" r="10" transform="translate(70 2260)" fill="#ecf1ee"/>
    <circle id="Ellipse_50" data-name="Ellipse 50" cx="10" cy="10" r="10" transform="translate(100 2260)" fill="#ecf1ee"/>
    <circle id="Ellipse_51" data-name="Ellipse 51" cx="10" cy="10" r="10" transform="translate(70 2290)" fill="#ecf1ee"/>
    <circle id="Ellipse_52" data-name="Ellipse 52" cx="10" cy="10" r="10" transform="translate(100 2290)" fill="#ecf1ee"/>
    <circle id="Ellipse_53" data-name="Ellipse 53" cx="10" cy="10" r="10" transform="translate(130 2200)" fill="#ecf1ee"/>
    <circle id="Ellipse_54" data-name="Ellipse 54" cx="10" cy="10" r="10" transform="translate(160 2200)" fill="#ecf1ee"/>
    <circle id="Ellipse_55" data-name="Ellipse 55" cx="10" cy="10" r="10" transform="translate(130 2230)" fill="#ecf1ee"/>
    <circle id="Ellipse_56" data-name="Ellipse 56" cx="10" cy="10" r="10" transform="translate(160 2230)" fill="#ecf1ee"/>
    <circle id="Ellipse_57" data-name="Ellipse 57" cx="10" cy="10" r="10" transform="translate(190 2200)" fill="#ecf1ee"/>
    <circle id="Ellipse_58" data-name="Ellipse 58" cx="10" cy="10" r="10" transform="translate(220 2200)" fill="#ecf1ee"/>
    <circle id="Ellipse_59" data-name="Ellipse 59" cx="10" cy="10" r="10" transform="translate(190 2230)" fill="#ecf1ee"/>
    <circle id="Ellipse_60" data-name="Ellipse 60" cx="10" cy="10" r="10" transform="translate(220 2230)" fill="#ecf1ee"/>
    <circle id="Ellipse_61" data-name="Ellipse 61" cx="10" cy="10" r="10" transform="translate(130 2260)" fill="#ecf1ee"/>
    <circle id="Ellipse_62" data-name="Ellipse 62" cx="10" cy="10" r="10" transform="translate(160 2260)" fill="#ecf1ee"/>
    <circle id="Ellipse_63" data-name="Ellipse 63" cx="10" cy="10" r="10" transform="translate(130 2290)" fill="#ecf1ee"/>
    <circle id="Ellipse_64" data-name="Ellipse 64" cx="10" cy="10" r="10" transform="translate(160 2290)" fill="#ecf1ee"/>
    <circle id="Ellipse_65" data-name="Ellipse 65" cx="10" cy="10" r="10" transform="translate(190 2260)" fill="#ecf1ee"/>
    <circle id="Ellipse_66" data-name="Ellipse 66" cx="10" cy="10" r="10" transform="translate(220 2260)" fill="#ecf1ee"/>
    <circle id="Ellipse_67" data-name="Ellipse 67" cx="10" cy="10" r="10" transform="translate(190 2290)" fill="#ecf1ee"/>
    <circle id="Ellipse_68" data-name="Ellipse 68" cx="10" cy="10" r="10" transform="translate(220 2290)" fill="#ecf1ee"/>
    <circle id="Ellipse_69" data-name="Ellipse 69" cx="10" cy="10" r="10" transform="translate(10 2320)" fill="#ecf1ee"/>
    <circle id="Ellipse_70" data-name="Ellipse 70" cx="10" cy="10" r="10" transform="translate(40 2320)" fill="#ecf1ee"/>
    <circle id="Ellipse_71" data-name="Ellipse 71" cx="10" cy="10" r="10" transform="translate(10 2350)" fill="#ecf1ee"/>
    <circle id="Ellipse_72" data-name="Ellipse 72" cx="10" cy="10" r="10" transform="translate(40 2350)" fill="#ecf1ee"/>
    <circle id="Ellipse_73" data-name="Ellipse 73" cx="10" cy="10" r="10" transform="translate(70 2320)" fill="#ecf1ee"/>
    <circle id="Ellipse_74" data-name="Ellipse 74" cx="10" cy="10" r="10" transform="translate(100 2320)" fill="#ecf1ee"/>
    <circle id="Ellipse_75" data-name="Ellipse 75" cx="10" cy="10" r="10" transform="translate(70 2350)" fill="#ecf1ee"/>
    <circle id="Ellipse_76" data-name="Ellipse 76" cx="10" cy="10" r="10" transform="translate(100 2350)" fill="#ecf1ee"/>
    <circle id="Ellipse_77" data-name="Ellipse 77" cx="10" cy="10" r="10" transform="translate(10 2380)" fill="#ecf1ee"/>
    <circle id="Ellipse_78" data-name="Ellipse 78" cx="10" cy="10" r="10" transform="translate(40 2380)" fill="#ecf1ee"/>
    <circle id="Ellipse_79" data-name="Ellipse 79" cx="10" cy="10" r="10" transform="translate(10 2410)" fill="#ecf1ee"/>
    <circle id="Ellipse_80" data-name="Ellipse 80" cx="10" cy="10" r="10" transform="translate(40 2410)" fill="#ecf1ee"/>
    <circle id="Ellipse_81" data-name="Ellipse 81" cx="10" cy="10" r="10" transform="translate(70 2380)" fill="#ecf1ee"/>
    <circle id="Ellipse_82" data-name="Ellipse 82" cx="10" cy="10" r="10" transform="translate(100 2380)" fill="#ecf1ee"/>
    <circle id="Ellipse_83" data-name="Ellipse 83" cx="10" cy="10" r="10" transform="translate(70 2410)" fill="#ecf1ee"/>
    <circle id="Ellipse_84" data-name="Ellipse 84" cx="10" cy="10" r="10" transform="translate(100 2410)" fill="#ecf1ee"/>
    <circle id="Ellipse_85" data-name="Ellipse 85" cx="10" cy="10" r="10" transform="translate(130 2320)" fill="#ecf1ee"/>
    <circle id="Ellipse_86" data-name="Ellipse 86" cx="10" cy="10" r="10" transform="translate(160 2320)" fill="#ecf1ee"/>
    <circle id="Ellipse_87" data-name="Ellipse 87" cx="10" cy="10" r="10" transform="translate(130 2350)" fill="#ecf1ee"/>
    <circle id="Ellipse_88" data-name="Ellipse 88" cx="10" cy="10" r="10" transform="translate(160 2350)" fill="#ecf1ee"/>
    <circle id="Ellipse_89" data-name="Ellipse 89" cx="10" cy="10" r="10" transform="translate(190 2320)" fill="#ecf1ee"/>
    <circle id="Ellipse_90" data-name="Ellipse 90" cx="10" cy="10" r="10" transform="translate(220 2320)" fill="#ecf1ee"/>
    <circle id="Ellipse_91" data-name="Ellipse 91" cx="10" cy="10" r="10" transform="translate(190 2350)" fill="#ecf1ee"/>
    <circle id="Ellipse_92" data-name="Ellipse 92" cx="10" cy="10" r="10" transform="translate(220 2350)" fill="#ecf1ee"/>
    <circle id="Ellipse_93" data-name="Ellipse 93" cx="10" cy="10" r="10" transform="translate(130 2380)" fill="#ecf1ee"/>
    <circle id="Ellipse_94" data-name="Ellipse 94" cx="10" cy="10" r="10" transform="translate(160 2380)" fill="#ecf1ee"/>
    <circle id="Ellipse_95" data-name="Ellipse 95" cx="10" cy="10" r="10" transform="translate(130 2410)" fill="#ecf1ee"/>
    <circle id="Ellipse_96" data-name="Ellipse 96" cx="10" cy="10" r="10" transform="translate(160 2410)" fill="#ecf1ee"/>
    <circle id="Ellipse_97" data-name="Ellipse 97" cx="10" cy="10" r="10" transform="translate(190 2380)" fill="#ecf1ee"/>
    <circle id="Ellipse_98" data-name="Ellipse 98" cx="10" cy="10" r="10" transform="translate(220 2380)" fill="#ecf1ee"/>
    <circle id="Ellipse_99" data-name="Ellipse 99" cx="10" cy="10" r="10" transform="translate(190 2410)" fill="#ecf1ee"/>
    <circle id="Ellipse_100" data-name="Ellipse 100" cx="10" cy="10" r="10" transform="translate(220 2410)" fill="#ecf1ee"/>
  </g>
</svg>
