<svg xmlns="http://www.w3.org/2000/svg" width="44" height="44" viewBox="0 0 44 44">
  <path id="_5279123_tweet_twitter_twitter_logo_icon" data-name="5279123_tweet_twitter_twitter logo_icon" d="M22,0A22,22,0,1,1,0,22,22.01,22.01,0,0,1,22,0ZM18.125,33.7A14.957,14.957,0,0,0,33.183,18.643c0-.23,0-.461-.011-.681a10.842,10.842,0,0,0,2.645-2.744,10.74,10.74,0,0,1-3.04.834,5.289,5.289,0,0,0,2.327-2.93,10.719,10.719,0,0,1-3.359,1.284,5.3,5.3,0,0,0-9.153,3.622,4.851,4.851,0,0,0,.143,1.207A15.013,15.013,0,0,1,11.825,13.7a5.29,5.29,0,0,0,1.646,7.057,5.2,5.2,0,0,1-2.393-.658v.066a5.3,5.3,0,0,0,4.247,5.191,5.278,5.278,0,0,1-1.394.187,5.047,5.047,0,0,1-1-.1,5.284,5.284,0,0,0,4.939,3.677A10.638,10.638,0,0,1,11.3,31.385a9.632,9.632,0,0,1-1.262-.077A14.745,14.745,0,0,0,18.125,33.7Z" fill="#4d9be6" fill-rule="evenodd"/>
</svg>
