<svg xmlns="http://www.w3.org/2000/svg" width="205.38" height="66.48" viewBox="0 0 205.38 66.48">
  <g id="Visa" transform="translate(-11.832 -81.809)">
    <g id="Layer_1" data-name="Layer 1">
      <path id="Path_60" data-name="Path 60" d="M180.344,177.77c-16.452,0-28.007,8.744-28.109,21.252-.1,9.264,8.284,14.432,14.561,17.51,6.493,3.148,8.661,5.168,8.638,7.984-.064,4.317-5.2,6.286-9.963,6.286a33.364,33.364,0,0,1-15.647-3.369l-2.163-1.026-2.3,14.413c3.889,1.795,11.072,3.35,18.537,3.428,17.46,0,28.817-8.642,28.951-21.993.069-7.363-4.372-12.913-13.976-17.487-5.8-2.987-9.383-4.965-9.328-7.989,0-2.674,3.01-5.522,9.531-5.522a29.066,29.066,0,0,1,12.425,2.476l1.482.741,2.264-13.962A41.1,41.1,0,0,0,180.34,177.8ZM128.7,178.893,118.3,243.32h16.645l10.414-64.427Zm-24.358.06-16.277,43.9-1.735-8.919c-4.054-10.939-12.83-22.411-23.051-27.059l14.892,56.351h17.6l26.18-64.271H104.343Zm120.714,0c-3.985,0-6.967,1.137-8.744,5.347l-24.671,59.02H209.13s2.853-7.943,3.5-9.664l21.289.037c.515,2.246,2.025,9.664,2.025,9.664h15.426l-13.465-64.4Zm1.173,17.368,1.109,5.55s3.194,15.366,3.861,18.587H217.395c1.381-3.682,6.627-18,6.627-18-.1.175,1.381-3.728,2.209-6.139Z" transform="translate(-34.159 -95.961)" fill="#e1f2ee"/>
      <path id="Path_61" data-name="Path 61" d="M52.687,180.27H25.866l-.156,1.109c20.851,5.334,34.611,18.408,40.341,33.916L60.22,185.7c-1-4.073-3.921-5.283-7.533-5.426" transform="translate(-13.878 -97.311)" fill="#e1f2ee"/>
    </g>
  </g>
</svg>
