<svg xmlns="http://www.w3.org/2000/svg" viewBox="0 0 500 500"><defs><style>.cls-1{fill:#e8ebe9;}.cls-2{fill:#fff;}</style></defs><g id="Layer_2" data-name="Layer 2"><g id="Layer_1-2" data-name="Layer 1"><circle class="cls-1" cx="250" cy="250" r="250"/><path class="cls-2" d="M317.66,177.77c-35.75,0-60.86,19-61.08,46.18-.22,20.13,18,31.36,31.64,38.05,14.11,6.84,18.82,11.23,18.77,17.35-.14,9.38-11.29,13.66-21.65,13.66-14.44,0-22.15-2.11-34-7.32l-4.7-2.23-5,31.32c8.45,3.9,24.06,7.28,40.28,7.45,37.94,0,62.62-18.78,62.91-47.79.15-16-9.5-28.06-30.37-38-12.6-6.49-20.39-10.79-20.27-17.36,0-5.81,6.54-12,20.71-12a63.16,63.16,0,0,1,27,5.38l3.22,1.61,4.92-30.34a89.32,89.32,0,0,0-32.39-5.89Zm-112.22,2.44-22.61,140H219l22.63-140Zm-52.93.13-35.37,95.39-3.77-19.38c-8.81-23.77-27.88-48.7-50.09-58.8L95.64,320l38.25,0,56.89-139.66H152.51Zm262.31,0c-8.66,0-15.14,2.47-19,11.62L342.21,320.21h38s6.2-17.26,7.61-21l46.26.08c1.12,4.88,4.4,21,4.4,21H472L442.74,180.35Zm2.55,37.74,2.41,12.06s6.94,33.39,8.39,40.39h-30c3-8,14.4-39.12,14.4-39.12-.22.38,3-8.1,4.8-13.34Z"/><path class="cls-2" d="M84.33,180.27H26.05l-.34,2.41c45.31,11.59,75.21,40,87.66,73.7L100.7,192.06c-2.18-8.85-8.52-11.48-16.37-11.79"/></g></g></svg>