<svg xmlns="http://www.w3.org/2000/svg" viewBox="0 0 500 500"><defs><style>.cls-1{fill:#e8ebe9;}.cls-2{fill:#fff;}</style></defs><g id="Layer_2" data-name="Layer 2"><g id="Layer_1-2" data-name="Layer 1"><circle class="cls-1" cx="250" cy="250" r="250"/><path id="path22" class="cls-2" d="M108.47,249.94l46.75-46.87A8.38,8.38,0,0,0,143.3,191.3L96.59,238,49.67,191.23a8.38,8.38,0,1,0-11.78,11.91l46.75,46.73L37.92,296.68a8.37,8.37,0,1,0,11.75,11.93l46.85-46.79,46.66,46.62a8.37,8.37,0,0,0,14.45-5.76,8.27,8.27,0,0,0-2.44-5.9Z"/><path id="path24" class="cls-2" d="M386.4,249.93a15.22,15.22,0,1,0,15.23-15.23,15.24,15.24,0,0,0-15.23,15.23"/><path id="path26" class="cls-2" d="M357.53,249.93A44.08,44.08,0,1,1,401.61,294a44.13,44.13,0,0,1-44.08-44.07m-17.34,0a61.43,61.43,0,1,0,61.42-61.42,61.49,61.49,0,0,0-61.42,61.42"/><path id="path28" class="cls-2" d="M335.83,189.56h-2.58a34.84,34.84,0,0,0-21.43,7.24,8.38,8.38,0,0,0-8.18-6.58,8.28,8.28,0,0,0-8.31,8.3s0,103.45,0,103.45a8.38,8.38,0,0,0,16.75,0s0-63.61,0-63.61c0-21.2,1.93-29.76,20.1-32a28.86,28.86,0,0,1,3.51-.18c5-.17,8.5-3.58,8.5-8.2a8.39,8.39,0,0,0-8.4-8.37"/><path id="path30" class="cls-2" d="M175,239.82c0-.23,0-.47,0-.7a44.37,44.37,0,0,1,86.18.7Zm103.36-1.58c-3.61-17.09-13-31.13-27.21-40.14a61.45,61.45,0,0,0-94.33,52.25,60.37,60.37,0,0,0,1.83,14.81,61.92,61.92,0,0,0,52.13,45.89,58.71,58.71,0,0,0,22.1-1.47,60.38,60.38,0,0,0,18.36-7.84c5.94-3.82,10.91-8.85,15.71-14.88l.3-.33c3.33-4.13,2.71-10-.95-12.83-3.1-2.37-8.29-3.33-12.37,1.9-.88,1.25-1.86,2.54-2.94,3.83a48.26,48.26,0,0,1-12.1,9.76,44.13,44.13,0,0,1-20.6,5.2c-24.36-.27-37.4-17.28-42-29.42a44.44,44.44,0,0,1-1.87-7c-.05-.45-.09-.89-.11-1.29h87.43c12-.25,18.44-8.72,16.66-18.39"/></g></g></svg>