<svg xmlns="http://www.w3.org/2000/svg" width="196.889" height="56.598" viewBox="0 0 196.889 56.598">
  <g id="Xero" transform="translate(-16.204 -86.751)">
    <g id="Layer_1" data-name="Layer 1">
      <path id="path22" d="M68.925,216.838l21.514-21.569a3.856,3.856,0,0,0-5.486-5.416l-21.5,21.491L41.865,189.82a3.856,3.856,0,1,0-5.421,5.481l21.514,21.5-21.5,21.542a3.853,3.853,0,1,0,5.407,5.49l21.56-21.533L84.9,243.76a3.852,3.852,0,0,0,6.65-2.651,3.806,3.806,0,0,0-1.123-2.715Z" transform="translate(-19.007 -101.817)" fill="#e1f2ee"/>
      <path id="path24" d="M386.4,241.709a7,7,0,1,0,7.007-7.009,7,7,0,0,0-7.007,7.009" transform="translate(-208.581 -126.692)" fill="#e1f2ee"/>
      <path id="path26" d="M348.17,216.775a20.285,20.285,0,1,1,20.284,20.281,20.286,20.286,0,0,1-20.284-20.281m-7.98,0a28.27,28.27,0,1,0,28.267-28.265,28.271,28.271,0,0,0-28.267,28.265" transform="translate(-183.636 -101.759)" fill="#e1f2ee"/>
      <path id="path28" d="M313.968,189.56h-1.187a16.033,16.033,0,0,0-9.862,3.332,3.856,3.856,0,0,0-3.764-3.028,3.81,3.81,0,0,0-3.824,3.82V241.29a3.856,3.856,0,0,0,7.708,0V212.017c0-9.756.888-13.7,9.25-14.726a13.282,13.282,0,0,1,1.615-.083,3.78,3.78,0,0,0,3.912-3.774,3.861,3.861,0,0,0-3.866-3.852" transform="translate(-159.421 -102.325)" fill="#e1f2ee"/>
      <path id="path30" d="M165.186,212.151v-.322a20.419,20.419,0,0,1,39.66.322Zm47.566-.727A28.226,28.226,0,0,0,156.819,217a27.781,27.781,0,0,0,.842,6.815,28.5,28.5,0,0,0,23.99,21.118,27.017,27.017,0,0,0,10.17-.676,27.787,27.787,0,0,0,8.449-3.608,30.261,30.261,0,0,0,7.23-6.848l.138-.152a4.2,4.2,0,0,0-.437-5.9,3.863,3.863,0,0,0-5.693.874c-.4.575-.856,1.169-1.353,1.763a22.209,22.209,0,0,1-5.568,4.492,20.308,20.308,0,0,1-9.48,2.393,20.675,20.675,0,0,1-19.328-13.539,20.452,20.452,0,0,1-.861-3.221c-.023-.207-.041-.41-.051-.594H205.1c5.522-.115,8.486-4.013,7.667-8.463" transform="translate(-84.652 -101.787)" fill="#e1f2ee"/>
    </g>
  </g>
</svg>
