<svg xmlns="http://www.w3.org/2000/svg" width="32" height="32" viewBox="0 0 32 32">
  <path id="_5279120_play_video_youtube_youtuble_logo_icon" data-name="5279120_play_video_youtube_youtuble logo_icon" d="M16,0A16,16,0,1,1,0,16,16.008,16.008,0,0,1,16,0Zm9.582,11.186a2.5,2.5,0,0,0-1.768-1.768C22.254,9,16,9,16,9s-6.254,0-7.814.418a2.5,2.5,0,0,0-1.768,1.768A26.035,26.035,0,0,0,6,16a26.032,26.032,0,0,0,.418,4.814,2.5,2.5,0,0,0,1.768,1.768C9.746,23,16,23,16,23s6.254,0,7.814-.418a2.5,2.5,0,0,0,1.768-1.768A26.032,26.032,0,0,0,26,16a26.035,26.035,0,0,0-.418-4.814ZM14,19V13l5.2,3L14,19Z" fill="#2e222f" fill-rule="evenodd"/>
</svg>
