<svg xmlns="http://www.w3.org/2000/svg" width="44" height="44" viewBox="0 0 44 44">
  <path id="_5279120_play_video_youtube_youtuble_logo_icon" data-name="5279120_play_video_youtube_youtuble logo_icon" d="M22,0A22,22,0,1,1,0,22,22.01,22.01,0,0,1,22,0ZM35.175,15.381a3.444,3.444,0,0,0-2.431-2.431C30.6,12.375,22,12.375,22,12.375s-8.6,0-10.744.575a3.444,3.444,0,0,0-2.431,2.431A35.8,35.8,0,0,0,8.25,22a35.794,35.794,0,0,0,.574,6.619,3.444,3.444,0,0,0,2.431,2.431C13.4,31.625,22,31.625,22,31.625s8.6,0,10.744-.574a3.444,3.444,0,0,0,2.431-2.431A35.793,35.793,0,0,0,35.75,22a35.8,35.8,0,0,0-.574-6.619ZM19.25,26.125v-8.25L26.394,22,19.25,26.125Z" fill="#4d9be6" fill-rule="evenodd"/>
</svg>
